<?xml version="1.0" standalone="no"?>
<!DOCTYPE svg PUBLIC "-//W3C//DTD SVG 1.1//EN" "http://www.w3.org/Graphics/SVG/1.1/DTD/svg11.dtd" >
<svg xmlns="http://www.w3.org/2000/svg">
<metadata>Generated by IcoMoon</metadata>
<defs>
<font id="icomoon" horiz-adv-x="1024">
<font-face units-per-em="1024" ascent="960" descent="-64" />
<missing-glyph horiz-adv-x="1024" />
<glyph unicode="&#x20;" horiz-adv-x="512" d="" />
<glyph unicode="&#xe900;" glyph-name="ic_comment_red" horiz-adv-x="1023" d="M510.977 962.046h398.45c4.444 0.705 9.569 1.108 14.788 1.108 54.803 0 99.229-44.426 99.229-99.229 0-4.902-0.355-9.72-1.042-14.432l0.064 0.536q0-301.267 0-602.533c0.433-3.537 0.681-7.631 0.681-11.783 0-56.497-45.8-102.298-102.298-102.298-3.663 0-7.28 0.192-10.843 0.568l0.444-0.038c-107.413 0-107.413 0-107.413-109.459q0-5.115 0-10.23c0-40.919-3.069-64.448-14.833-72.631s-35.804 0-75.7 22.505c-59.124 36.488-108.629 82.569-147.818 136.618l-1.025 1.484c-13.748 19.728-36.325 32.476-61.878 32.476-2.165 0-4.308-0.091-6.426-0.271l0.276 0.019c-127.872 0-255.744 0-383.105 0-3.257-0.368-7.033-0.578-10.858-0.578-56.497 0-102.298 45.8-102.298 102.298 0 3.988 0.228 7.923 0.672 11.791l-0.044-0.472q0 301.267 0 602.533c-0.724 4.493-1.138 9.672-1.138 14.949 0 54.52 44.197 98.717 98.717 98.717 5.276 0 10.456-0.414 15.508-1.211l-0.559 0.073zM748.308 128.32c-0.302 2.090-0.475 4.503-0.475 6.956 0 28.249 22.9 51.149 51.149 51.149 1.969 0 3.913-0.111 5.824-0.328l-0.234 0.022h92.068c57.287 0 74.677 15.856 74.677 71.097q0 291.037 0 582.585c0 51.149-18.414 70.074-71.608 70.585q-388.22 0-776.44 0c-51.149 0-71.608-17.902-71.608-70.074q0-291.037 0-582.585c0-55.752 17.391-71.608 74.677-71.608 127.872 0 255.744 0 383.105 0 2.881 0.298 6.224 0.469 9.608 0.469 33.671 0 63.406-16.858 81.222-42.594l0.215-0.328c38.561-56.202 88.037-102.083 145.675-135.423l2.145-1.145c0 44.5 0 81.838 0 119.177z" />
<glyph unicode="&#xe901;" glyph-name="checklist" d="M1024 748.373c0-202.581 0-404.992 0-607.573-0.683-4.779-1.365-9.387-2.219-14.165-16.384-92.843-68.949-154.112-159.403-182.101-12.971-3.925-26.453-5.803-39.765-8.533-207.019 0-414.208 0-621.227 0-5.803 1.195-11.605 2.389-17.408 3.413-89.259 17.237-147.285 69.461-174.763 155.648-4.608 14.677-6.144 30.379-9.045 45.568 0 206.507 0 413.013 0 619.52 0.683 2.219 1.536 4.267 1.877 6.485 10.752 96.085 87.723 175.616 183.808 189.952 6.997 1.024 13.824 2.219 20.821 3.243 203.605 0 407.381 0 610.987 0 9.557-1.365 19.115-2.219 28.331-4.267 89.6-20.992 147.115-75.605 171.008-164.693 3.584-13.653 4.608-28.331 6.997-42.496zM66.048 449.195c0 0 0 0 0 0 0.171-96.085 0.171-192.341 0.171-288.427 0-9.899 0.512-19.968 1.877-29.696 9.387-70.827 75.605-128.853 146.944-128.853 197.632 0 395.264 0 593.067 0 18.773 0 36.864 3.584 53.76 11.093 62.123 28.16 95.573 76.288 95.744 145.067 0.512 192.341 0.171 384.512 0.171 576.853 0 8.192-0.683 16.555-1.536 24.576-8.533 75.264-74.24 133.973-150.187 133.973-194.901 0-389.632 0-584.533 0-20.139 0-39.424-3.413-58.368-10.581-55.125-20.651-97.28-79.36-97.28-136.363 0.171-99.157 0.171-198.485 0.171-297.643zM418.987 265.899c16.725 17.579 33.109 34.816 49.493 52.224 118.101 125.269 236.032 250.368 353.963 375.637 10.24 10.923 21.675 17.92 36.864 13.995 24.747-6.315 32.597-35.328 14.677-54.955-17.067-18.773-34.645-36.864-52.053-55.296-124.245-131.755-248.491-263.68-372.907-395.435-18.944-19.968-36.011-20.651-55.979-2.389-68.949 63.317-137.728 126.635-206.848 189.781-10.752 9.899-16.555 20.992-12.8 35.499 6.315 24.576 34.816 32.768 54.101 15.701 19.627-17.408 38.571-35.328 57.856-53.077 42.325-38.912 84.651-77.653 126.976-116.565 2.048-1.536 4.096-2.901 6.656-5.12z" />
<glyph unicode="&#xe902;" glyph-name="ic_product" d="M473.6 328.533v-234.667c0-64-51.2-115.2-115.2-115.2-59.733 0-110.933 51.2-110.933 115.2v234.667h226.133zM358.4 917.333c21.333 0 38.4-17.067 38.4-38.4v-507.733h-72.533v507.733c0 21.333 17.067 38.4 34.133 38.4v0zM452.267 823.467h-17.067v38.4h55.467v38.4h-55.467c-8.533 34.133-38.4 59.733-76.8 59.733-34.133 0-64-25.6-72.533-59.733h-59.733v-38.4h55.467v-38.4h-93.867v-38.4h93.867v-38.4h-93.867v-42.667h93.867v-38.4h-55.467v-38.4h55.467v-38.4h-34.133v-38.4h34.133v-174.933h-76.8v-277.333c0-85.333 68.267-157.867 153.6-157.867 85.333-4.267 153.6 68.267 153.6 153.6v277.333h-76.8v174.933h34.133v38.4h-34.133v38.4h55.467v38.4h-55.467v42.667h93.867v38.4h-93.867v38.4h93.867v38.4h-76.8zM780.8 960c55.467 0 98.133-46.933 98.133-102.4v-819.2c0-55.467-42.667-102.4-98.133-102.4h-68.267c-55.467 0-98.133 46.933-98.133 102.4v819.2c0 55.467 42.667 102.4 98.133 102.4h68.267zM652.8 469.333h187.733v38.4h-187.733v-38.4zM652.8 546.133h187.733v38.4h-187.733v-38.4zM712.533 917.333c-34.133 0-59.733-25.6-59.733-59.733v-234.667h187.733v234.667c0 34.133-25.6 59.733-59.733 59.733h-68.267zM780.8-21.333c34.133 0 59.733 25.6 59.733 59.733v388.267h-187.733v-388.267c0-34.133 25.6-59.733 59.733-59.733h68.267zM691.2 34.133v157.867h34.133v-157.867h-34.133zM691.2 230.4v42.667h34.133v-38.4h-34.133z" />
<glyph unicode="&#xe903;" d="M1024 448c0-282.77-229.23-512-512-512s-512 229.23-512 512c0 282.77 229.23 512 512 512s512-229.23 512-512z" />
<glyph unicode="&#xe904;" glyph-name="ic_menu2" horiz-adv-x="1463" d="M393.354 643.761c-15.236 0-27.602 13.492-27.602 30.116s12.364 30.116 27.602 30.116h676.222c15.236 0 27.602-13.492 27.602-30.116s-12.364-30.116-27.602-30.116h-676.222zM393.354 417.884c-15.236 0-27.602 13.492-27.602 30.116s12.364 30.116 27.602 30.116h676.222c15.236 0 27.602-13.492 27.602-30.116s-12.364-30.116-27.602-30.116h-676.222zM393.354 192c-15.236 0-27.602 13.492-27.602 30.116s12.364 30.116 27.602 30.116h676.222c15.236 0 27.602-13.492 27.602-30.116s-12.364-30.116-27.602-30.116h-676.222z" />
<glyph unicode="&#xe905;" glyph-name="btn_arrow_left_disabled" d="M274.421 397.307l386.207-440.29c24.565-28.022 64.399-28.022 88.954 0 24.557 27.997 24.557 73.406 0 101.401l-341.734 389.589 341.722 389.576c24.557 28.009 24.557 73.413 0 101.41-24.557 28.009-64.385 28.009-88.954 0l-386.205-440.297c-12.279-14.005-18.411-32.342-18.411-50.687 0-18.354 6.144-36.704 18.421-50.703z" />
<glyph unicode="&#xe906;" glyph-name="btn_arrow_left_enabled" d="M274.421 397.307l386.207-440.29c24.565-28.022 64.399-28.022 88.954 0 24.557 27.997 24.557 73.406 0 101.401l-341.734 389.589 341.722 389.576c24.557 28.009 24.557 73.413 0 101.41-24.557 28.009-64.385 28.009-88.954 0l-386.205-440.297c-12.279-14.005-18.411-32.342-18.411-50.687 0-18.354 6.144-36.704 18.421-50.703z" />
<glyph unicode="&#xe907;" glyph-name="btn_arrow_right_disabled" d="M749.579 397.307l-386.207-440.29c-24.565-28.022-64.399-28.022-88.954 0-24.557 27.997-24.557 73.406 0 101.401l341.734 389.589-341.722 389.576c-24.557 28.009-24.557 73.413 0 101.41 24.557 28.009 64.385 28.009 88.954 0l386.205-440.297c12.279-14.005 18.411-32.342 18.411-50.687 0-18.354-6.144-36.704-18.421-50.703z" />
<glyph unicode="&#xe908;" glyph-name="btn_arrow_right_enabled" d="M749.579 397.307l-386.207-440.29c-24.565-28.022-64.399-28.022-88.954 0-24.557 27.997-24.557 73.406 0 101.401l341.734 389.589-341.722 389.576c-24.557 28.009-24.557 73.413 0 101.41 24.557 28.009 64.385 28.009 88.954 0l386.205-440.297c12.279-14.005 18.411-32.342 18.411-50.687 0-18.354-6.144-36.704-18.421-50.703z" />
<glyph unicode="&#xe909;" d="M512 960v0c283.307 0 512-228.693 512-512v0c0-283.307-228.693-512-512-512v0c-283.307 0-512 228.693-512 512v0c0 283.307 228.693 512 512 512z" />
<glyph unicode="&#xe90a;" d="M443.733 209.067c-3.413 0-6.827 0-10.24 3.413-6.827 6.827-6.827 17.067 0 23.893l194.56 201.387-194.56 201.387c-6.827 6.827-6.827 17.067 0 23.893s17.067 6.827 23.893 0l204.8-211.627c6.827-6.827 6.827-17.067 0-23.893l-204.8-211.627c-3.413-3.413-10.24-6.827-13.653-6.827z" />
<glyph unicode="&#xe90b;" d="M512 960v0c-283.307 0-512-228.693-512-512v0c0-283.307 228.693-512 512-512v0c283.307 0 512 228.693 512 512v0c0 283.307-228.693 512-512 512z" />
<glyph unicode="&#xe90c;" d="M580.267 226.133c-3.413 0-10.24 0-13.653 3.413l-204.8 204.8c-6.827 6.827-6.827 17.067 0 23.893l204.8 204.8c6.827 6.827 17.067 6.827 23.893 0s6.827-17.067 0-23.893l-191.147-191.147 191.147-191.147c6.827-6.827 6.827-17.067 0-23.893 0-6.827-6.827-6.827-10.24-6.827z" />
<glyph unicode="&#xe90d;" glyph-name="ic_add" d="M512-24.608c-260.588 0-472.615 212.027-472.615 472.615 0 260.569 212.027 472.615 472.615 472.615s472.615-212.047 472.615-472.615c0-260.588-212.027-472.615-472.615-472.615zM512 960.008c-282.309 0-512-229.691-512-512 0-282.329 229.691-512 512-512s512 229.671 512 512c0 282.309-229.691 512-512 512zM758.154 467.69h-226.462v216.615c0 10.89-8.822 19.692-19.692 19.692s-19.692-8.802-19.692-19.692v-216.615h-226.462c-10.87 0-19.692-8.802-19.692-19.692s8.822-19.692 19.692-19.692h226.462v-236.308c0-10.89 8.822-19.692 19.692-19.692s19.692 8.802 19.692 19.692v236.308h226.462c10.87 0 19.692 8.802 19.692 19.692s-8.822 19.692-19.692 19.692z" />
<glyph unicode="&#xe90e;" glyph-name="ic_add_clicked" d="M512 960.008c282.309 0 512-229.691 512-512 0-282.329-229.691-512-512-512s-512 229.671-512 512c0 282.309 229.691 512 512 512zM758.154 467.69h-226.462v216.615c0 10.89-8.822 19.692-19.692 19.692s-19.692-8.802-19.692-19.692v-216.615h-226.462c-10.87 0-19.692-8.802-19.692-19.692s8.822-19.692 19.692-19.692h226.462v-236.308c0-10.89 8.822-19.692 19.692-19.692s19.692 8.802 19.692 19.692v236.308h226.462c10.87 0 19.692 8.802 19.692 19.692s-8.822 19.692-19.692 19.692z" />
<glyph unicode="&#xe90f;" glyph-name="ic_add_review_darkgrey" d="M204.8 759.8c0-2.6-2-4.6-4.6-4.6h-115.8l120.4 120.4v-115.8zM781.6 803.2c13.6 0 24.8 11 24.8 24.8v78c0 29.8-24.2 54-54 54h-523c-6.6 0-12.8-2.6-17.4-7.2l-204.8-204.8c-4.6-4.6-7.2-11-7.2-17.4v-740.598c0-29.802 24.2-54 54-54h698.2c29.802 0 54 24.198 54 54v377.398c0 13.602-11 24.8-24.8 24.8-13.6 0-24.8-11-24.8-24.8v-377.398c0-2.602-2-4.602-4.598-4.602h-698.002c-2.6 0-4.6 2-4.6 4.602v715.798h150.8c29.8 0 54 24.2 54 54v150.8h498.2c2.602 0 4.602-2 4.602-4.6v-78c0-13.6 11-24.8 24.598-24.8v0zM937.001 675.8l-31.202-31.2-77.4 77.4 31.202 31.2c13.4 13.4 35 13.4 48.4 0l29-29c13.398-13.2 13.398-35 0-48.4v0zM475.601 214.4l-77.4 77.602 395.198 395.198 77.4-77.4-395.198-395.4zM355.401 171.8l20.2 72.6 52.6-52.398-72.8-20.202zM972.001 759.2l-29 29c-32.602 32.6-85.602 32.6-118.202 0l-231-230.8h-400.398c-13.602 0-24.8-11-24.8-24.8s11-24.8 24.8-24.8h350.8l-148.8-148.798h-202c-13.602 0-24.8-11-24.8-24.802 0-13.8 11-24.8 24.8-24.8h152.8l-0.402-0.398c-3-3-5.198-6.802-6.398-10.802l-38.2-137.4h-107.8c-13.602 0-24.8-11-24.8-24.798 0-13.802 11-24.802 24.8-24.802h126.6c0 0 5.4 0.6 6.2 0.802 0.2 0 156 43.198 156 43.198 4.2 1.2 7.8 3.4 10.8 6.4l478.798 478.8c32.802 33.2 32.802 86.2 0.202 118.8v0z" />
<glyph unicode="&#xe910;" glyph-name="ic_add_review_white" d="M204.8 759.8c0-2.6-2-4.6-4.6-4.6h-115.8l120.4 120.4v-115.8zM781.6 803.2c13.6 0 24.8 11 24.8 24.8v78c0 29.8-24.2 54-54 54h-523c-6.6 0-12.8-2.6-17.4-7.2l-204.8-204.8c-4.6-4.6-7.2-11-7.2-17.4v-740.598c0-29.802 24.2-54 54-54h698.2c29.802 0 54 24.198 54 54v377.398c0 13.602-11 24.8-24.8 24.8-13.6 0-24.8-11-24.8-24.8v-377.398c0-2.602-2-4.602-4.598-4.602h-698.002c-2.6 0-4.6 2-4.6 4.602v715.798h150.8c29.8 0 54 24.2 54 54v150.8h498.2c2.602 0 4.602-2 4.602-4.6v-78c0-13.6 11-24.8 24.598-24.8v0zM937.001 675.8l-31.202-31.2-77.4 77.4 31.202 31.2c13.4 13.4 35 13.4 48.4 0l29-29c13.398-13.2 13.398-35 0-48.4v0zM475.601 214.4l-77.4 77.602 395.198 395.198 77.4-77.4-395.198-395.4zM355.401 171.8l20.2 72.6 52.6-52.398-72.8-20.202zM972.001 759.2l-29 29c-32.602 32.6-85.602 32.6-118.202 0l-231-230.8h-400.398c-13.602 0-24.8-11-24.8-24.8s11-24.8 24.8-24.8h350.8l-148.8-148.798h-202c-13.602 0-24.8-11-24.8-24.802 0-13.8 11-24.8 24.8-24.8h152.8l-0.402-0.398c-3-3-5.198-6.802-6.398-10.802l-38.2-137.4h-107.8c-13.602 0-24.8-11-24.8-24.798 0-13.802 11-24.802 24.8-24.802h126.6c0 0 5.4 0.6 6.2 0.802 0.2 0 156 43.198 156 43.198 4.2 1.2 7.8 3.4 10.8 6.4l478.798 478.8c32.802 33.2 32.802 86.2 0.202 118.8v0z" />
<glyph unicode="&#xe911;" glyph-name="ic_aksen_box" d="M0 960h1024v-1024h-1024v1024z" />
<glyph unicode="&#xe912;" glyph-name="ic_arrow_down_pink" d="M1024 659.416l-120.32 129.918-391.595-422.002-391.68 422.002-120.405-129.918 512.085-552.749z" />
<glyph unicode="&#xe913;" glyph-name="ic_arrow_left_pink" d="M733.013 960l120.32-120.32-390.827-391.595 390.827-391.68-120.32-120.405-511.915 512.085z" />
<glyph unicode="&#xe914;" glyph-name="ic_arrow_right" d="M219.429 9.143l438.857 438.857-438.857 438.711v73.289h72.997l512.146-512-512.146-512h-72.997z" />
<glyph unicode="&#xe915;" glyph-name="ic_arrow_right_pink" d="M300.584-64l-129.918 120.32 422.002 391.595-422.002 391.68 129.918 120.405 552.749-512.085z" />
<glyph unicode="&#xe916;" glyph-name="ic_arrow_up_pink" d="M1024 236.584l-120.32-129.918-391.595 422.002-391.68-422.002-120.405 129.918 512.085 552.749z" />
<glyph unicode="&#xe917;" glyph-name="ic_back" d="M999.619 472.363h-916.377l445.998 446.006c9.533 9.533 9.533 24.966 0 34.499-9.533 9.509-24.942 9.509-34.474 0l-487.616-487.625c-9.533-9.533-9.533-24.966 0-34.475l487.616-487.649c4.754-4.754 10.996-7.119 17.237-7.119s12.483 2.365 17.237 7.119c9.533 9.533 9.533 24.966 0 34.499l-445.998 446.006h916.377c13.483 0 24.381 10.898 24.381 24.381 0 13.458-10.898 24.357-24.381 24.357z" />
<glyph unicode="&#xe918;" glyph-name="ic_beauty_coins" d="M645.675 300.661v0c-0.047-0.098-0.090-0.201-0.141-0.299 0.051 0.098 0.094 0.201 0.141 0.299zM651.058 311.192c-0.495-1.143-0.99-2.283-1.498-3.418 0.508 1.135 1.003 2.274 1.498 3.418v0zM654.959 320.516v0c-0.486-1.212-0.99-2.419-1.485-3.627 0.495 1.207 0.998 2.415 1.485 3.627zM985.428 210.785c0-9.728-7.897-17.641-17.602-17.641h-402.82c30.883 27.638 56.711 60.829 75.891 98.008-0.002-0.002-0.002-0.005-0.002-0.007h326.932c9.705 0 17.602-7.913 17.602-17.641v-62.719zM539.851 172.697v0zM38.37 446.838c0 166.318 134.995 301.63 300.929 301.63 165.929 0 300.924-135.312 300.924-301.63 0-166.323-134.995-301.635-300.924-301.635-165.934 0-300.929 135.312-300.929 301.635v0zM651.063 580.984v0c-0.499 1.143-0.994 2.287-1.502 3.426 0.508-1.139 1.003-2.283 1.502-3.426zM654.959 571.583v0c-0.486 1.207-0.986 2.411-1.485 3.614 0.499-1.203 0.998-2.406 1.485-3.614zM645.679 592.868v0c-0.051 0.107-0.094 0.213-0.145 0.316 0.051-0.102 0.094-0.209 0.145-0.316zM905.331 545.972v-61.808c0-9.98-8.103-18.095-18.055-18.095h-209.237c-1.914 34.254-8.895 67.171-20.226 97.999h229.462c9.952 0 18.055-8.117 18.055-18.095v0zM678.439 456.747v0c0-0.188 0.013-0.371 0.017-0.559-0.004 0.188-0.017 0.375-0.017 0.559zM678.456 437.242v0c-0.004-0.183-0.017-0.367-0.017-0.555 0 0.188 0.013 0.371 0.017 0.555zM678.593 446.836v0zM814.763 408.693v-60.176c0-10.43-8.463-18.913-18.866-18.913h-138.084c11.331 30.833 18.312 63.752 20.226 98.004h117.858c10.403 0 18.866-8.485 18.866-18.915v0zM967.826 329.605h-117.904c2.074 5.928 3.211 12.288 3.211 18.913v60.176c0 6.627-1.137 12.99-3.211 18.915h37.353c31.108 0 56.426 25.369 56.426 56.556v61.808c0 31.184-25.317 56.556-56.426 56.556h-246.381c0 0 0-0.002 0.002-0.005-56.452 109.431-170.449 184.407-301.598 184.407-187.090 0-339.299-152.564-339.299-340.091 0-187.529 152.209-340.095 339.299-340.095 63.356 0 122.703 17.516 173.502 47.941h455.025c30.864 0 55.972 25.167 55.972 56.101v62.719c0 30.934-25.108 56.101-55.972 56.101v0zM339.297 224.764c-122.163 0-221.553 99.621-221.553 222.073 0 122.45 99.39 222.071 221.553 222.071s221.553-99.621 221.553-222.071c0-122.452-99.39-222.073-221.553-222.073zM339.297 707.369c-143.322 0-259.923-116.875-259.923-260.531 0-143.658 116.602-260.533 259.923-260.533s259.923 116.875 259.923 260.533c0 143.656-116.602 260.531-259.923 260.531zM371.429 420.297h-65.625v91.268l65.625 0.161v-91.429zM392.427 416.574v113.001h-11.662v46.758c0 45.46 0 57.149-5.187 62.346-5.182 6.495-12.955 3.896-46.648-12.99-33.691-15.586-32.394-42.861-32.394-42.861v-54.551h-10.367v-113.001c-6.477 0-10.365-5.195-10.365-12.987v-132.483c0-7.795 5.182-12.99 10.365-12.99h106.259c6.477 0 10.365 5.195 10.365 12.99v133.781c0 6.495-5.182 12.987-10.365 12.987v0z" />
<glyph unicode="&#xe919;" glyph-name="ic_big_star_full" d="M196.096-21.181c-5.645 3.977-8.468 10.725-7.277 17.383l56.655 319.916-239.946 226.553c-4.986 4.723-6.782 11.772-4.637 18.182 2.163 6.428 7.9 11.115 14.81 12.092l331.574 46.681 148.301 291.080c3.079 6.073 9.458 9.908 16.423 9.908 6.983 0 13.362-3.835 16.423-9.908l148.283-291.080 331.592-46.681c6.91-0.977 12.629-5.647 14.81-12.092 2.145-6.41 0.367-13.477-4.637-18.182l-239.946-226.589 56.655-319.898c1.155-6.659-1.668-13.406-7.295-17.383-5.645-4.013-13.142-4.528-19.319-1.349l-296.565 151.035-296.602-151.035c-2.676-1.349-5.609-2.024-8.523-2.024-3.794 0-7.588 1.136-10.778 3.391z" />
<glyph unicode="&#xe91a;" glyph-name="ic_big_star_grey" d="M221.403-3.005c-3.613 0-7.227 1.114-10.264 3.324-5.377 3.899-8.065 10.512-6.93 17.039l53.957 313.568-228.52 222.058c-4.748 4.629-6.459 11.539-4.416 17.822 2.060 6.3 7.524 10.895 14.105 11.852l315.785 45.755 141.239 285.304c2.933 5.952 9.007 9.711 15.641 9.711 6.651 0 12.726-3.759 15.641-9.711l141.221-285.304 315.802-45.755c6.581-0.957 12.027-5.534 14.105-11.852 2.042-6.283 0.349-13.21-4.416-17.822l-228.52-222.093 53.957-313.551c1.1-6.527-1.589-13.14-6.948-17.039-5.377-3.933-12.516-4.438-18.399-1.323l-282.443 148.039-282.478-148.039c-2.549-1.323-5.342-1.984-8.117-1.984v0z" />
<glyph unicode="&#xe91b;" d="M1024 562.215c-3.938 7.877-7.877 11.815-15.754 11.815l-330.831 47.262-149.662 291.446c-3.938 3.938-7.877 7.877-15.754 7.877v-791.631l295.385-149.662c7.877-3.938 11.815-3.938 19.692 0 3.938 3.938 7.877 11.815 7.877 15.754l-55.138 319.015 240.246 228.431c3.938 3.938 3.938 11.815 3.938 19.692z" />
<glyph unicode="&#xe91c;" d="M512 920.615c-7.877 0-11.815-3.938-15.754-11.815l-149.662-287.508-330.831-47.262c-7.877-3.938-11.815-7.877-15.754-11.815 0-7.877 0-15.754 3.938-19.692l240.246-228.431-55.138-319.015c0-7.877 0-11.815 7.877-15.754 3.938-3.938 7.877-3.938 11.815-3.938s3.938 0 7.877 3.938l295.385 149.662v791.631z" />
<glyph unicode="&#xe91d;" d="M1024 562.215c-3.938 7.877-7.877 11.815-15.754 11.815l-330.831 47.262-149.662 291.446c-3.938 3.938-7.877 7.877-15.754 7.877s-11.815-3.938-15.754-11.815l-141.785-275.692v-586.831l157.538 78.769 295.385-149.662c7.877-3.938 11.815-3.938 19.692 0 3.938 3.938 7.877 11.815 7.877 15.754l-55.138 319.015 240.246 228.431c3.938 7.877 3.938 15.754 3.938 23.631z" />
<glyph unicode="&#xe91e;" d="M346.585 621.292l-330.831-47.262c-7.877-3.938-11.815-7.877-15.754-11.815 0-7.877 0-15.754 3.938-19.692l240.246-228.431-55.138-319.015c0-7.877 0-11.815 7.877-15.754 3.938-3.938 7.877-3.938 11.815-3.938s3.938 0 7.877 3.938l137.846 70.892v582.892l-7.877-11.815z" />
<glyph unicode="&#xe91f;" d="M1024 562.215c-3.938 7.877-7.877 11.815-15.754 11.815l-299.323 39.385v-586.831l98.462-51.2c7.877-3.938 11.815-3.938 19.692 0 3.938 3.938 7.877 11.815 7.877 15.754l-55.138 319.015 240.246 228.431c3.938 7.877 3.938 15.754 3.938 23.631z" />
<glyph unicode="&#xe920;" d="M677.415 621.292l-149.662 291.446c-3.938 3.938-7.877 7.877-15.754 7.877s-11.815-3.938-15.754-11.815l-149.662-287.508-330.831-47.262c-7.877-3.938-11.815-7.877-15.754-11.815 0-7.877 0-15.754 3.938-19.692l240.246-228.431-55.138-319.015c0-7.877 0-11.815 7.877-15.754 3.938-3.938 7.877-3.938 11.815-3.938s3.938 0 7.877 3.938l295.385 149.662 196.923-98.462v582.892l-31.508 7.877z" />
<glyph unicode="&#xe921;" glyph-name="ic_check_selected" d="M0 539.341h190.404c0 0 146.287-117.436 208.979-215.3 0 0 195.050 347.961 431.89 571.959h192.727c0 0-334.369-406.677-512-896h-126.55c0 0-183.436 337.087-385.45 539.341z" />
<glyph unicode="&#xe922;" glyph-name="ic_checkbox" d="M910.222 846.222v-796.444h-796.444v796.444h796.444zM910.222 960h-796.444c-62.578 0-113.778-51.2-113.778-113.778v-796.444c0-62.578 51.2-113.778 113.778-113.778h796.444c62.578 0 113.778 51.2 113.778 113.778v796.444c0 62.578-51.2 113.778-113.778 113.778v0 0z" />
<glyph unicode="&#xe923;" glyph-name="ic_checkbox_selected" d="M910.222 960h-796.444c-62.578 0-113.778-51.2-113.778-113.778v-796.444c0-62.578 51.2-113.778 113.778-113.778h796.444c62.578 0 113.778 51.2 113.778 113.778v796.444c0 62.578-51.2 113.778-113.778 113.778v0zM398.222 163.556l-284.444 273.504 79.644 76.581 204.8-196.923 432.356 415.726 79.644-76.581-512-492.308z" />
<glyph unicode="&#xe924;" glyph-name="ic_close" d="M481.384 447.905l-283.28-285.264c-7.87-7.925-7.87-20.775 0-28.69 3.93-3.966 9.090-5.952 14.24-5.952 5.16 0 10.31 1.985 14.24 5.952l285.41 287.401 285.41-287.401c3.94-3.966 9.090-5.952 14.24-5.952 5.16 0 10.31 1.985 14.24 5.952 7.87 7.915 7.87 20.765 0 28.69l-283.26 285.264 283.45 285.465c7.87 7.925 7.87 20.765 0 28.69-7.87 7.915-20.62 7.915-28.48 0l-285.59-287.613-285.62 287.603c-7.87 7.915-20.61 7.915-28.48 0-7.87-7.925-7.87-20.765 0-28.69l283.48-285.455z" />
<glyph unicode="&#xe925;" glyph-name="green_checklist" d="M577.933 960c2.8-6.829 8.4-5.6 13.999-6.829 221.76-36.305 393.882-210.857 426.133-430.86l0.334-2.778c2.8-23.833 1.434-127.633 0-133.233-4.238-49.11-16.739-94.329-36.13-135.675l1.029 2.442c-70.988-171.758-228.809-294.432-417.258-313.949l-2.176-0.183c-2.8 0-5.6 0-5.6-2.8h-117.799c-19.667 6.829-42.066 11.199-61.46 16.799-164.898 45.353-294.289 166.779-349.83 323.184l-1.109 3.581c-12.634 32.233-14.068 65.694-28.067 98.2v140.266c4.824 10.503 8.708 22.732 11.052 35.5l0.147 0.966c44.955 206.316 209.849 364.178 416.472 398.135l2.962 0.402c5.6 1.229 9.834 1.229 11.199 6.829zM519 37c1.47-0.028 3.203-0.043 4.94-0.043 14.085 0 27.929 1.034 41.46 3.029l-1.533-0.186c177.856 23.27 318.665 157.421 351.69 329.86l0.41 2.572c2.497 22.298 3.921 48.149 3.921 74.333s-1.424 52.034-4.199 77.479l0.278-3.146c-35.99 193.074-203.164 337.289-404.023 337.289-226.782 0-410.624-183.843-410.624-410.624s183.843-410.624 410.624-410.624c2.481 0 4.957 0.022 7.427 0.066l-0.371-0.005zM1021.2 485.866c2.010-11.179 3.159-24.047 3.159-37.184s-1.149-26.004-3.352-38.509l0.193 1.325c-1.675 11.173-2.632 24.066-2.632 37.184s0.957 26.011 2.805 38.615l-0.172-1.431zM799.533 599.568c0-0.046 0-0.1 0-0.154 0-15.455-8.375-28.953-20.834-36.205l-0.2-0.107c-75.733-65.899-151.466-130.433-227.267-196.4-39.266-33.667-78.533-67.333-117.799-102.434-10.061-8.932-21.641-16.466-34.246-22.124l-0.855-0.343c-5.717-2.772-12.435-4.393-19.532-4.393-14.936 0-28.196 7.179-36.518 18.274l-0.085 0.118c-36.467 43.5-71.567 87.001-106.6 130.433-6.718 7.275-10.838 17.037-10.838 27.761 0 13.912 6.934 26.205 17.534 33.611l0.133 0.088c4.16 3.036 7.821 6.264 11.165 9.797l0.035 0.037c7.408 8.394 18.191 13.661 30.205 13.661 14.462 0 27.141-7.632 34.229-19.088l0.099-0.172c22.467-26.633 44.866-51.9 64.534-79.967 9.834-12.634 15.433-11.199 25.267-1.434 99.566 89.801 200.566 179.533 300.473 269.334 7.723 9.389 19.342 15.331 32.348 15.331 6.589 0 12.821-1.525 18.364-4.24l-0.246 0.109c21.554-8.67 37.19-27.916 40.59-51.137l0.042-0.353z" />
<glyph unicode="&#xe926;" glyph-name="ic_dob" d="M79.792-29.867v699.733h864.416v-699.733h-864.416zM212.779 925.867h83.117v-102.4h-83.117v102.4zM728.104 925.867h83.117v-102.4h-83.117v102.4zM960.831 891.733h-116.364v51.2c0 9.438-7.431 17.067-16.623 17.067h-116.364c-9.193 0-16.623-7.629-16.623-17.067v-51.2h-365.714v51.2c0 9.438-7.431 17.067-16.623 17.067h-116.364c-9.193 0-16.623-7.629-16.623-17.067v-51.2h-116.364c-9.193 0-16.623-7.629-16.623-17.067v-921.6c0-9.438 7.431-17.067 16.623-17.067h897.662c9.193 0 16.623 7.629 16.623 17.067v921.6c0 9.438-7.431 17.067-16.623 17.067v0zM678.234 413.867v119.467h116.364v-119.467h-116.364zM678.234 260.267v119.467h116.364v-119.467h-116.364zM678.234 106.667v119.467h116.364v-119.467h-116.364zM528.623 106.667v119.467h116.364v-119.467h-116.364zM379.013 106.667v119.467h116.364v-119.467h-116.364zM229.403 106.667v119.467h116.364v-119.467h-116.364zM229.403 260.267v119.467h116.364v-119.467h-116.364zM229.403 413.867v119.467h116.364v-119.467h-116.364zM379.013 413.867v119.467h116.364v-119.467h-116.364zM379.013 260.267v119.467h116.364v-119.467h-116.364zM528.623 260.267v119.467h116.364v-119.467h-116.364zM528.623 413.867v119.467h116.364v-119.467h-116.364zM644.987 567.467h-448.831v-494.933h631.688v494.933h-182.857z" />
<glyph unicode="&#xe927;" glyph-name="ic_dropdown" d="M446.113 219.864c36.388-43.666 94.881-44.271 131.774 0l380.226 456.271c36.388 43.666 19.227 79.064-36.042 79.064h-820.142c-56.294 0-72.934-34.793-36.042-79.064l380.226-456.271z" />
<glyph unicode="&#xe928;" glyph-name="ic_edit" d="M204.8 759.8c0-2.6-2-4.6-4.6-4.6h-115.8l120.4 120.4v-115.8zM781.6 803.2c13.6 0 24.8 11 24.8 24.8v78c0 29.8-24.2 54-54 54h-523c-6.6 0-12.8-2.6-17.4-7.2l-204.8-204.8c-4.6-4.6-7.2-11-7.2-17.4v-740.598c0-29.802 24.2-54 54-54h698.2c29.802 0 54 24.198 54 54v377.398c0 13.602-11 24.8-24.8 24.8-13.6 0-24.8-11-24.8-24.8v-377.398c0-2.602-2-4.602-4.598-4.602h-698.002c-2.6 0-4.6 2-4.6 4.602v715.798h150.8c29.8 0 54 24.2 54 54v150.8h498.2c2.602 0 4.602-2 4.602-4.6v-78c0-13.6 11-24.8 24.598-24.8v0zM937.001 675.8l-31.202-31.2-77.4 77.4 31.202 31.2c13.4 13.4 35 13.4 48.4 0l29-29c13.398-13.2 13.398-35 0-48.4v0zM475.601 214.4l-77.4 77.602 395.198 395.198 77.4-77.4-395.198-395.4zM355.401 171.8l20.2 72.6 52.6-52.398-72.8-20.202zM972.001 759.2l-29 29c-32.602 32.6-85.602 32.6-118.202 0l-231-230.8h-400.398c-13.602 0-24.8-11-24.8-24.8s11-24.8 24.8-24.8h350.8l-148.8-148.798h-202c-13.602 0-24.8-11-24.8-24.802 0-13.8 11-24.8 24.8-24.8h152.8l-0.402-0.398c-3-3-5.198-6.802-6.398-10.802l-38.2-137.4h-107.8c-13.602 0-24.8-11-24.8-24.798 0-13.802 11-24.802 24.8-24.802h126.6c0 0 5.4 0.6 6.2 0.802 0.2 0 156 43.198 156 43.198 4.2 1.2 7.8 3.4 10.8 6.4l478.798 478.8c32.802 33.2 32.802 86.2 0.202 118.8v0z" />
<glyph unicode="&#xe929;" glyph-name="ic_edit_pencil" d="M45.263 261.271l507.607 507.604c10.314 10.317 26.823 10.317 37.14 0s10.317-26.826 0-37.143l-501.412-501.415-31.702-236.167 236.167 31.702 502.352 502.352c10.317 10.317 26.826 10.317 37.143 0s10.317-26.826 0-37.143l-508.543-508.541c-4.125-4.128-9.378-6.754-15.005-7.502l-279.128-37.519c-8.253-1.125-16.318 1.69-22.135 7.502-5.815 5.818-8.63 13.882-7.502 22.135l37.517 279.128c0.751 5.627 3.374 10.879 7.502 15.007zM673.673 648.070c10.32 10.317 26.826 10.317 37.143 0s10.317-26.826 0-37.143l-467.085-467.087c-10.32-10.314-26.828-10.314-37.143 0-10.317 10.32-10.317 26.828 0 37.143l467.085 467.087zM955.426 688.212l-64.531-64.528-204.466 204.466 64.528 64.531c19.697 19.697 51.961 19.697 71.659 0l132.621-132.621c19.886-19.886 20.071-51.961 0.188-71.847zM713.818 929.823l-83.101-83.101c-10.317-10.317-10.317-26.826 0-37.143l241.42-241.42c10.317-10.32 26.826-10.32 37.14 0l83.103 83.098c40.143 40.143 40.331 105.61 0 145.941l-132.624 132.624c-40.14 40.143-105.61 40.329-145.939 0z" />
<glyph unicode="&#xe92a;" glyph-name="ic_facebook" d="M508.357-56.714c-280.758 0-508.357 227.599-508.357 508.357s227.599 508.357 508.357 508.357c280.758 0 508.357-227.599 508.357-508.357s-227.599-508.357-508.357-508.357zM636.158 431.743l12.007 116.682h-102.708v68.735c0 25.781 17.036 31.835 29.152 31.835h73.864v113.365l-101.802 0.426c-112.984 0-138.657-84.63-138.657-138.675v-75.577h-65.364v-116.79h65.364v-332.32h137.433v332.32h90.71z" />
<glyph unicode="&#xe92b;" glyph-name="ic_facebook_blue" d="M227.556 960h568.889c125.675 0 227.556-101.88 227.556-227.556v-568.889c0-125.675-101.88-227.556-227.556-227.556h-568.889c-125.675 0-227.556 101.88-227.556 227.556v568.889c0 125.675 101.88 227.556 227.556 227.556v0zM752.537 320.74l15.076 135.087h-128.963v79.577c0 29.848 21.391 36.856 36.604 36.856h92.746v131.247l-127.826 0.493c-141.867 0-174.102-97.979-174.102-160.549v-87.498h-82.073v-135.213h82.073v-384.74h172.566v384.74h113.898z" />
<glyph unicode="&#xe92c;" glyph-name="ic_facebook_white" d="M227.556 960h568.889c125.675 0 227.556-101.88 227.556-227.556v-568.889c0-125.675-101.88-227.556-227.556-227.556h-568.889c-125.675 0-227.556 101.88-227.556 227.556v568.889c0 125.675 101.88 227.556 227.556 227.556v0zM752.537 320.74l15.076 135.087h-128.963v79.577c0 29.848 21.391 36.856 36.604 36.856h92.746v131.247l-127.826 0.493c-141.867 0-174.102-97.979-174.102-160.549v-87.498h-82.073v-135.213h82.073v-384.74h172.566v384.74h113.898z" />
<glyph unicode="&#xe92d;" glyph-name="ic_gift" d="M980.116 521.978h-337.503v196.023h337.712v-196.023h-0.209zM642.614-20.325v500.925h276.69v-500.925h-276.69zM424.649-20.325v738.535h174.287v-738.535h-174.287zM381.18 521.978h-337.503v196.023h337.712v-196.023h-0.209zM104.49-20.325v500.925h276.69v-500.925h-276.69zM309.29 916.323c45.767 0 178.678-104.49 178.678-141.688 0-3.344-7.732-7.105-13.375-9.613h-178.051c-33.228 6.687-58.932 38.243-58.932 75.024-0.209 41.587 32.601 76.278 71.68 76.278v0zM714.712 916.323c39.288 0 71.889-32.601 71.889-76.278 0-36.78-25.705-68.336-58.932-75.024h-176.797c-11.285 3.344-14.838 7.314-14.838 9.613 0 37.198 130.613 141.688 178.678 141.688v0zM798.722 761.678c19.435 20.898 31.556 49.319 31.556 80.666 0 65.411-52.245 117.656-115.566 117.656-48.065 0-158.825-71.889-203.129-136.464-45.767 64.575-156.108 134.374-202.293 134.374-63.112 0-115.566-52.245-115.566-117.656 0-30.302 11.285-57.678 29.466-78.368h-223.191v-281.078h61.022v-544.809h902.167v544.6h60.813v281.078h-225.28z" />
<glyph unicode="&#xe92e;" glyph-name="ic_help" d="M512-25.6c-259.2 0-473.6 211.2-473.6 470.4s214.4 470.4 473.6 470.4 473.6-211.2 473.6-470.4c0-259.2-214.4-470.4-473.6-470.4zM512 953.6c-281.6 0-512-227.2-512-508.8s230.4-508.8 512-508.8 512 227.2 512 508.8c0 281.6-230.4 508.8-512 508.8zM512 230.4c9.6 0 19.2-9.6 19.2-19.2v-38.4c0-9.6-9.6-19.2-19.2-19.2s-19.2 9.6-19.2 19.2v38.4c0 9.6 9.6 19.2 19.2 19.2zM515.2 777.6c83.2 0 153.6-70.4 156.8-153.6 0-54.4-25.6-105.6-73.6-134.4-41.6-25.6-67.2-73.6-67.2-124.8v-54.4c0-9.6-9.6-19.2-19.2-19.2s-19.2 9.6-19.2 19.2v54.4c0 67.2 32 124.8 83.2 160 35.2 22.4 54.4 60.8 54.4 99.2 0 60.8-54.4 115.2-115.2 115.2-32 0-60.8-12.8-83.2-35.2s-35.2-51.2-35.2-83.2c0-9.6-9.6-19.2-19.2-19.2s-19.2 9.6-19.2 19.2c0 41.6 16 83.2 48 112 25.6 28.8 64 44.8 108.8 44.8-3.2 0-3.2 0 0 0z" />
<glyph unicode="&#xe92f;" glyph-name="ic_helper" d="M597.28 492.766c-40.48-26.142-65.6-74.626-65.6-126.652v-55.953c0-10.914-8.8-19.735-19.68-19.735-10.912 0-19.712 8.821-19.712 19.735v55.953c0 66.256 31.264 125.944 83.648 159.747 34.496 22.246 54.784 60.010 54.176 101.058-0.864 62.231-54.176 115.577-116.416 116.446-31.744 0.74-61.984-11.622-84.672-34.029-22.688-22.375-35.168-52.251-35.168-84.123 0-10.882-8.832-19.703-19.744-19.703-10.848 0-19.68 8.821-19.68 19.703 0 42.496 16.704 82.32 46.944 112.164 29.728 29.329 68.896 45.394 110.56 45.394 0.768 0 1.536-0.032 2.272-0.032 84.448-1.191 154.144-70.859 155.296-155.272 0.768-54.698-26.24-105.050-72.224-134.7v0zM531.68 172.305c0-10.882-8.8-19.703-19.68-19.703-10.912 0-19.712 8.821-19.712 19.703v39.373c0 10.914 8.8 19.703 19.712 19.703 10.88 0 19.68-8.789 19.68-19.703v-39.373zM512 960c-282.336 0-512-229.705-512-512.016 0-282.343 229.664-511.984 512-511.984 282.304 0 512 229.641 512 511.984 0 282.311-229.696 512.016-512 512.016v0z" />
<glyph unicode="&#xe930;" glyph-name="ic_info" d="M512.002-24.615c-259.938 0-472.615 212.677-472.615 472.615s212.677 472.615 472.615 472.615c259.938 0 472.615-212.677 472.615-472.615s-212.677-472.615-472.615-472.615zM512.002 960c-281.6 0-512-230.4-512-512s230.4-512 512-512c281.6 0 512 230.4 512 512s-230.4 512-512 512zM512.002 781.269c11.815 0 19.692-7.877 19.692-19.692v-39.385c0-11.815-7.877-19.692-19.692-19.692s-19.692 7.877-19.692 19.692v39.385c0 11.815 7.877 19.692 19.692 19.692zM512.002 643.423c10.87 0 19.692-8.802 19.692-19.692v-451.426c0-10.89-8.822-19.692-19.692-19.692s-19.692 8.802-19.692 19.692v451.426c0 10.89 8.822 19.692 19.692 19.692z" />
<glyph unicode="&#xe931;" glyph-name="ic_instagram" d="M508.416 349.778c56.095 0 101.827 45.65 101.827 101.786 0 22.159-7.25 42.619-19.251 59.331-18.493 25.641-48.558 42.455-82.514 42.455-33.976 0-64.020-16.794-82.555-42.435-12.042-16.712-19.231-37.171-19.251-59.331-0.061-56.136 45.629-101.806 101.745-101.806zM730.685 576.082v98.017l-98.038-0.307 0.328-98.038zM508.436 960c-280.351 0-508.436-228.086-508.436-508.436 0-280.33 228.086-508.436 508.436-508.436 280.33 0 508.436 228.106 508.436 508.436 0 280.351-228.065 508.436-508.436 508.436zM797.594 510.894v-236.749c0-61.665-50.135-111.78-111.759-111.78h-354.796c-61.645 0-111.759 50.115-111.759 111.78v354.796c0 61.645 50.115 111.759 111.759 111.759h354.775c61.645 0 111.78-50.115 111.78-111.759v-118.047zM666.604 451.564c0-87.183-70.943-158.167-158.167-158.167s-158.147 70.984-158.147 158.167c0 20.972 4.178 41.021 11.633 59.331h-86.323v-236.749c0-30.597 24.842-55.378 55.419-55.378h354.775c30.536 0 55.419 24.781 55.419 55.378v236.749h-86.364c7.516-18.309 11.756-38.359 11.756-59.331z" />
<glyph unicode="&#xe932;" glyph-name="ic_like" d="M512-27.429l-424.229 431.543c-117.029 117.029-117.029 314.514 0 431.543 51.2 58.514 131.657 87.771 204.8 87.771s153.6-29.257 212.114-87.771l7.314-7.314 7.314 7.314c58.514 58.514 131.657 87.771 212.114 87.771s153.6-29.257 212.114-87.771c117.029-117.029 117.029-307.2 0-424.229l-7.314-7.314-424.229-431.543zM292.571 850.286c-58.514 0-109.714-21.943-153.6-65.829-87.771-87.771-87.771-234.057 0-321.829l373.029-380.343 373.029 380.343c87.771 87.771 87.771 234.057 0 321.829-80.457 87.771-226.743 87.771-314.514 0l-58.514-65.829-58.514 65.829c-43.886 43.886-102.4 65.829-160.914 65.829z" />
<glyph unicode="&#xe933;" glyph-name="ic_liked" d="M512-27.429l-417.242 426.947c-2.713 2.889-5.55 5.679-8.345 8.539-115.218 117.898-115.218 309.049 0 426.947s302.024 117.898 417.242 0c2.795-2.86 5.522-5.763 8.181-8.707 2.987 2.944 5.714 5.847 8.509 8.707 115.218 117.898 302.024 117.898 417.242 0s115.218-309.049 0-426.947c-2.795-2.86-5.632-5.65-8.509-8.371l-417.078-427.115z" />
<glyph unicode="&#xe934;" glyph-name="ic_liked_white" d="M512-27.429l-417.242 426.947c-2.713 2.889-5.55 5.679-8.345 8.539-115.218 117.898-115.218 309.049 0 426.947s302.024 117.898 417.242 0c2.795-2.86 5.522-5.763 8.181-8.707 2.987 2.944 5.714 5.847 8.509 8.707 115.218 117.898 302.024 117.898 417.242 0s115.218-309.049 0-426.947c-2.795-2.86-5.632-5.65-8.509-8.371l-417.078-427.115z" />
<glyph unicode="&#xe935;" glyph-name="ic_menu" d="M177.232 689.778h669.54v-37.197h-669.54v37.197zM177.232 466.598h520.752v-37.197h-520.752v37.197zM177.232 243.419h669.54v-37.197h-669.54v37.197z" />
<glyph unicode="&#xe936;" glyph-name="ic_more" d="M450.285 678.4c0 31.68 27.77 57.6 61.715 57.6s61.715-25.92 61.715-57.6c0-31.68-27.769-57.6-61.715-57.6s-61.715 25.92-61.715 57.6zM450.285 217.6c0 31.68 27.77 57.6 61.715 57.6s61.715-25.92 61.715-57.6c0-31.68-27.769-57.6-61.715-57.6s-61.715 25.92-61.715 57.6zM450.285 448c0 31.68 27.77 57.6 61.715 57.6s61.715-25.92 61.715-57.6c0-31.68-27.769-57.6-61.715-57.6s-61.715 25.92-61.715 57.6z" />
<glyph unicode="&#xe937;" glyph-name="ic_more_dropdown" d="M183.467 605.867c-17.067-17.067-17.067-42.667 0-55.467l302.933-302.933c17.067-17.067 42.667-17.067 55.467 0l302.933 302.933c4.267 8.533 8.533 17.067 8.533 29.867 0 8.533-4.267 21.333-12.8 29.867-17.067 17.067-42.667 17.067-55.467 0l-273.067-277.333-273.067 273.067c-17.067 17.067-42.667 17.067-55.467 0z" />
<glyph unicode="&#xe938;" glyph-name="ic_more_dropdown_up" d="M840.533 290.133c17.067 17.067 17.067 42.667 0 55.467l-302.933 302.933c-17.067 17.067-42.667 17.067-55.467 0l-302.933-302.933c-4.267-8.533-8.533-17.067-8.533-29.867 0-8.533 4.267-21.333 12.8-29.867 17.067-17.067 42.667-17.067 55.467 0l273.067 277.333 273.067-273.067c17.067-17.067 42.667-17.067 55.467 0z" />
<glyph unicode="&#xe939;" glyph-name="ic_checked" d="M512 960c283.927 0 512-228.073 512-512s-228.073-512-512-512-512 228.073-512 512 228.073 512 512 512zM763.345 615.564l-32.582 32.582-358.4-353.745-144.291 144.291-32.582-32.582 176.873-176.873 390.982 386.327z" />
<glyph unicode="&#xe93a;" glyph-name="ic_play" d="M955.314 703.961c141.402-244.829 57.465-557.897-187.381-699.287-244.826-141.374-557.91-57.466-699.25 187.38-141.386 244.836-57.488 557.92 187.355 699.261 244.823 141.387 557.916 57.492 699.276-187.353zM696.283 468.809l-268.054 156.337c-24.427 14.261-44.13 2.859-43.993-25.396l1.373-310.313c0.124-28.249 20.068-39.748 44.567-25.598l266.003 153.578c24.473 14.124 24.525 37.13 0.104 51.392z" />
<glyph unicode="&#xe93b;" d="M1024 448c0 281.6-230.4 512-512 512s-512-230.4-512-512c0-192 102.4-354.133 256-443.733 38.4 38.4 85.333 64 140.8 81.067 4.267 0 8.533 4.267 8.533 12.8v89.6c0 4.267 0 4.267-4.267 8.533s-4.267 4.267-8.533 4.267v0c-76.8 0-123.733 17.067-149.333 29.867l-17.067 4.267 12.8 12.8c0 0 0 0 4.267 4.267 0 0 0 0 4.267 4.267 34.133 29.867 51.2 98.133 46.933 192 0 85.333 12.8 149.333 46.933 187.733 29.867 34.133 64 46.933 81.067 55.467v0c21.333 8.533 46.933 12.8 64 12.8 55.467 0 85.333-29.867 85.333-29.867v0c4.267-4.267 4.267-4.267 8.533-4.267s8.533 0 12.8 0c29.867 0 55.467-8.533 76.8-29.867 38.4-38.4 55.467-123.733 42.667-226.133-8.533-93.867 21.333-140.8 46.933-166.4l12.8-12.8-4.267-8.533c-51.2-25.6-123.733-29.867-145.067-29.867h-4.267c-4.267 0-8.533 0-8.533-4.267-4.267 0-4.267-4.267-4.267-8.533v-93.867c0-4.267 4.267-8.533 8.533-12.8 55.467-17.067 106.667-46.933 145.067-85.333 157.867 93.867 264.533 264.533 264.533 456.533z" />
<glyph unicode="&#xe93c;" d="M605.867 93.867v93.867c0 4.267 0 4.267 4.267 8.533s4.267 4.267 8.533 4.267h4.267c21.333 0 89.6 0 145.067 29.867l17.067 8.533-17.067 8.533c-25.6 21.333-59.733 68.267-46.933 166.4 12.8 102.4-4.267 183.467-42.667 226.133-21.333 21.333-46.933 29.867-76.8 29.867-4.267 0-8.533 0-12.8 0s-8.533 0-8.533 4.267v0c0 0-29.867 29.867-85.333 29.867-21.333 0-42.667-4.267-64-12.8v0c-29.867-4.267-64-17.067-89.6-55.467-34.133-38.4-46.933-102.4-46.933-187.733 4.267-98.133-12.8-162.133-51.2-196.267 0 0 0 0-4.267-4.267 0 0 0 0-4.267-4.267l-8.533-8.533 12.8-8.533c25.6-12.8 72.533-29.867 149.333-29.867v0c4.267 0 4.267 0 8.533-4.267 4.267 0 4.267-4.267 4.267-8.533v-89.6c0-4.267-4.267-8.533-8.533-12.8-51.2-17.067-102.4-42.667-140.8-81.067 76.8-42.667 162.133-68.267 256-68.267 89.6 0 174.933 21.333 247.467 64-38.4 38.4-89.6 68.267-145.067 85.333 0 4.267-4.267 8.533-4.267 12.8z" />
<glyph unicode="&#xe93d;" glyph-name="ic_report" d="M737.872 960.001l286.126-286.113v-442.987l-286.126-286.101h-442.962l-286.113 286.101v442.987l286.113 286.113h442.962zM973.442 251.861v401.067l-256.506 256.493h-401.092l-256.493-256.493v-401.067l256.493-256.506h401.092l256.506 256.506zM567.524 172.086v103.576h-102.248v-103.576h102.248zM567.524 370.957v361.737h-102.248v-361.737h102.248z" />
<glyph unicode="&#xe93e;" glyph-name="ic_reset" d="M512-64c-282.304 0-512 229.696-512 512 0 282.283 229.696 512 512 512s512-229.717 512-512c0-282.304-229.696-512-512-512zM719.083 655.072c-8.341 8.341-21.824 8.341-30.165 0l-176.917-176.917-176.917 176.917c-8.341 8.341-21.824 8.341-30.165 0s-8.341-21.824 0-30.165l176.917-176.917-176.917-176.917c-8.341-8.341-8.341-21.824 0-30.165 4.16-4.16 9.621-6.251 15.083-6.251s10.923 2.091 15.083 6.251l176.917 176.917 176.917-176.917c4.16-4.16 9.621-6.251 15.083-6.251s10.923 2.091 15.083 6.251c8.341 8.341 8.341 21.824 0 30.165l-176.917 176.917 176.917 176.917c8.341 8.341 8.341 21.824 0 30.165z" />
<glyph unicode="&#xe93f;" glyph-name="ic_search_black" d="M679.16 270.796c3.399 3.303 6.741 6.645 10.006 10.025 2.807 2.902 5.824 5.538 8.516 8.516l272.317-272.355-27.020-27.020-272.298 272.374c2.96 2.673 5.595 5.69 8.478 8.459v0zM38.19 559c0 200.061 162.749 362.809 362.809 362.809 200.041 0 362.809-162.749 362.809-362.809s-162.768-362.79-362.809-362.79c-200.061 0-362.809 162.729-362.809 362.79v0zM1024.019 16.983l-302.315 302.315c50.163 66.986 80.295 149.783 80.295 239.702 0 221.123-179.877 401-401 401s-401-179.877-401-401c0-221.103 179.877-400.98 401-400.98 89.919 0 172.735 30.094 239.683 80.295l302.315-302.315 81.021 80.983z" />
<glyph unicode="&#xe940;" glyph-name="ic_search_white" d="M679.16 270.796c3.399 3.303 6.741 6.645 10.006 10.025 2.807 2.902 5.824 5.538 8.516 8.516l272.317-272.355-27.020-27.020-272.298 272.374c2.96 2.673 5.595 5.69 8.478 8.459v0zM38.19 559c0 200.061 162.749 362.809 362.809 362.809 200.041 0 362.809-162.749 362.809-362.809s-162.768-362.79-362.809-362.79c-200.061 0-362.809 162.729-362.809 362.79v0zM1024.019 16.983l-302.315 302.315c50.163 66.986 80.295 149.783 80.295 239.702 0 221.123-179.877 401-401 401s-401-179.877-401-401c0-221.103 179.877-400.98 401-400.98 89.919 0 172.735 30.094 239.683 80.295l302.315-302.315 81.021 80.983z" />
<glyph unicode="&#xe941;" glyph-name="ic_selected" d="M942.592 857.6l-616.755-648.038-244.326 256.768-81.51-85.555 325.837-342.374 698.163 733.645z" />
<glyph unicode="&#xe942;" glyph-name="ic_selection" d="M439.4-22.984c40.101-39.611 104.665-40.057 145.217 0l300.527 296.861c40.101 39.611 27.174 71.723-29.656 71.723h-686.958c-56.479 0-70.208-31.666-29.656-71.723l300.527-296.861zM439.4 918.984c40.101 39.611 104.665 40.057 145.217 0l300.527-296.861c40.101-39.611 27.174-71.723-29.656-71.723h-686.958c-56.479 0-70.208 31.666-29.656 71.723l300.527 296.861z" />
<glyph unicode="&#xe943;" glyph-name="ic_share" d="M784.207-6.379c-63.025 0-114.258 56.346-114.258 125.661s51.232 125.661 114.258 125.661c63.027 0 114.259-56.346 114.259-125.661s-51.232-125.661-114.259-125.661zM239.793 322.551c-63.025 0-114.258 56.346-114.258 125.661s51.232 125.661 114.258 125.661c63.027 0 114.258-56.346 114.258-125.661s-51.426-125.661-114.258-125.661zM784.207 902.379c63.027 0 114.259-56.346 114.259-125.661s-51.232-125.661-114.259-125.661c-63.025 0-114.258 56.346-114.258 125.661s51.426 125.661 114.258 125.661zM784.207 302.14c-53.55 0-101.303-28.066-131.849-71.442l-255.776 157.13c5.995 18.924 9.28 39.336 9.28 60.385 0 21.262-3.285 41.462-9.473 60.598l255.583 156.917c30.353-43.588 78.298-71.867 132.042-71.867 91.64 0 166.456 82.073 166.456 183.070s-74.625 183.070-166.456 183.070c-91.831 0-166.454-82.073-166.454-183.070 0-21.262 3.285-41.674 9.471-60.598l-255.386-156.917c-30.355 43.801-78.298 71.867-132.046 71.867-91.638 0-166.456-82.073-166.456-183.070s74.818-183.070 166.65-183.070c53.746 0 101.691 28.279 132.237 72.080l255.581-157.13c-6.185-19.136-9.666-39.761-9.666-61.023 0-100.784 74.627-183.070 166.458-183.070s166.454 82.073 166.454 183.070c0 100.997-74.818 183.070-166.65 183.070z" />
<glyph unicode="&#xe944;" glyph-name="ic_star" d="M244.507 6.932c-3.473 0-6.946 1.061-9.866 3.165-5.168 3.712-7.752 10.010-6.661 16.225l51.861 298.588-219.643 211.45c-4.564 4.408-6.208 10.988-4.245 16.97 1.98 5.999 7.231 10.374 13.557 11.286l303.517 43.569 135.752 271.674c2.819 5.668 8.658 9.248 15.033 9.248 6.392 0 12.231-3.58 15.033-9.248l135.736-271.674 303.534-43.569c6.325-0.911 11.56-5.27 13.557-11.286 1.963-5.983 0.336-12.579-4.245-16.97l-219.643-211.483 51.861-298.572c1.057-6.215-1.527-12.512-6.678-16.225-5.168-3.745-12.030-4.226-17.684-1.26l-271.471 140.966-271.505-140.966c-2.45-1.26-5.134-1.889-7.802-1.889v0z" />
<glyph unicode="&#xe945;" glyph-name="ic_star_small" d="M196.096-60.279c-5.645 4.309-8.468 11.619-7.277 18.832l56.655 346.576-239.946 245.433c-4.986 5.117-6.782 12.753-4.637 19.698 2.163 6.963 7.9 12.042 14.81 13.1l331.574 50.572 148.301 315.336c3.079 6.579 9.458 10.734 16.423 10.734 6.983 0 13.362-4.155 16.423-10.734l148.283-315.336 331.592-50.572c6.91-1.058 12.629-6.117 14.81-13.1 2.145-6.944 0.367-14.6-4.637-19.698l-239.946-245.471 56.655-346.556c1.155-7.214-1.668-14.523-7.295-18.832-5.645-4.347-13.142-4.905-19.319-1.462l-296.565 163.622-296.602-163.622c-2.676-1.462-5.609-2.193-8.523-2.193-3.794 0-7.588 1.231-10.778 3.674z" />
<glyph unicode="&#xe946;" glyph-name="ic_star_small_grey" d="M196.096-60.279c-5.645 4.309-8.468 11.619-7.277 18.832l56.655 346.576-239.946 245.433c-4.986 5.117-6.782 12.753-4.637 19.698 2.163 6.963 7.9 12.042 14.81 13.1l331.574 50.572 148.301 315.336c3.079 6.579 9.458 10.734 16.423 10.734 6.983 0 13.362-4.155 16.423-10.734l148.283-315.336 331.592-50.572c6.91-1.058 12.629-6.117 14.81-13.1 2.145-6.944 0.367-14.6-4.637-19.698l-239.946-245.471 56.655-346.556c1.155-7.214-1.668-14.523-7.295-18.832-5.645-4.347-13.142-4.905-19.319-1.462l-296.565 163.622-296.602-163.622c-2.676-1.462-5.609-2.193-8.523-2.193-3.794 0-7.588 1.231-10.778 3.674z" />
<glyph unicode="&#xe947;" d="M1024 567.467c0 8.533-8.533 8.533-17.067 17.067l-332.8 51.2-145.067 315.733c0 8.533-8.533 8.533-17.067 8.533v-861.867l298.667-162.133c8.533 0 17.067 0 17.067 0 8.533 8.533 8.533 8.533 8.533 17.067l-59.733 349.867 238.933 247.467c8.533 8.533 8.533 17.067 8.533 17.067z" />
<glyph unicode="&#xe948;" d="M494.933 951.467l-145.067-315.733-332.8-51.2c-8.533 0-17.067-8.533-17.067-17.067s0-17.067 8.533-17.067l238.933-247.467-59.733-349.867c0-8.533 0-17.067 8.533-17.067 0 0 8.533 0 8.533 0s8.533 0 8.533 0l298.667 162.133v861.867c-8.533 0-17.067 0-17.067-8.533z" />
<glyph unicode="&#xe949;" d="M1024 567.467c0 8.533-8.533 8.533-17.067 17.067l-332.8 51.2-145.067 315.733c0 8.533-8.533 8.533-17.067 8.533s-17.067 0-17.067-8.533l-145.067-315.733h-8.533v-622.933l170.667 93.867 298.667-162.133c8.533 0 17.067 0 17.067 0 8.533 8.533 8.533 8.533 8.533 17.067l-59.733 349.867 238.933 247.467c8.533 0 8.533 8.533 8.533 8.533z" />
<glyph unicode="&#xe94a;" d="M17.067 584.533c-8.533 0-17.067-8.533-17.067-17.067s0-17.067 8.533-17.067l238.933-247.467-59.733-349.867c0-8.533 0-17.067 8.533-17.067 0 0 8.533 0 8.533 0s8.533 0 8.533 0l128 68.267v631.467l-324.267-51.2z" />
<glyph unicode="&#xe94b;" d="M1024 567.467c0 8.533-8.533 8.533-17.067 17.067l-324.267 51.2v-622.933l128-68.267c8.533 0 17.067 0 17.067 0 8.533 8.533 8.533 8.533 8.533 17.067l-59.733 349.867 238.933 247.467c8.533 0 8.533 8.533 8.533 8.533z" />
<glyph unicode="&#xe94c;" d="M674.133 635.733l-145.067 315.733c0 8.533-8.533 8.533-17.067 8.533s-17.067 0-17.067-8.533l-145.067-315.733-332.8-51.2c-8.533 0-17.067-8.533-17.067-17.067s0-17.067 8.533-17.067l238.933-247.467-59.733-349.867c0-8.533 0-17.067 8.533-17.067 0 0 8.533 0 8.533 0s8.533 0 8.533 0l298.667 162.133 170.667-93.867-8.533 631.467z" />
<glyph unicode="&#xe94d;" glyph-name="ic_star_yellow" d="M206.874-38.356c-3.794 0-7.588 1.17-10.778 3.49-5.645 4.093-8.468 11.038-7.277 17.89l56.655 329.247-239.946 233.161c-4.986 4.861-6.782 12.116-4.637 18.713 2.163 6.615 7.9 11.44 14.81 12.445l331.574 48.043 148.301 299.57c3.079 6.25 9.458 10.197 16.423 10.197 6.983 0 13.362-3.947 16.423-10.197l148.283-299.57 331.592-48.043c6.91-1.005 12.629-5.811 14.81-12.445 2.145-6.597 0.367-13.87-4.637-18.713l-239.946-233.197 56.655-329.229c1.155-6.853-1.668-13.797-7.295-17.89-5.645-4.13-13.142-4.66-19.319-1.389l-296.565 155.441-296.602-155.441c-2.676-1.389-5.609-2.083-8.523-2.083v0z" />
<glyph unicode="&#xe94e;" glyph-name="ic_success" d="M820.547 584.084l-362.442-363.789c-5.403-5.389-12.14-8.084-18.877-8.084s-13.474 2.695-18.85 8.084l-163.045 163.032c-10.779 9.432-10.779 26.947 0 37.726 9.432 10.779 26.947 10.779 37.74 0l144.155-144.168 343.579 344.926c10.792 10.779 26.947 10.779 37.74 0 10.779-10.779 10.779-26.947 0-37.726zM512 960c-282.947 0-512-229.053-512-512s229.053-512 512-512c282.947 0 512 229.053 512 512s-229.053 512-512 512z" />
<glyph unicode="&#xe94f;" glyph-name="ic_success_pink" d="M512-64c-282.77 0-512 229.23-512 512s229.23 512 512 512c282.77 0 512-229.23 512-512s-229.23-512-512-512zM440.203 234.667c10.393 0 20.787 4.135 28.718 12.395l287.179 299.34c15.866 16.527 15.866 43.333 0 59.867-15.851 16.532-41.569 16.528-57.43 0l-258.467-269.401-114.872 119.734c-15.862 16.532-41.574 16.532-57.435 0-15.862-16.533-15.862-43.335 0-59.867l143.595-149.672c7.925-8.265 18.324-12.395 28.712-12.395z" />
<glyph unicode="&#xe950;" d="M386.56 683.52h-284.16c-56.554 0-102.4-45.846-102.4-102.4v0-409.6c0-56.554 45.846-102.4 102.4-102.4h819.2c56.554 0 102.4 45.846 102.4 102.4v409.6c0 56.554-45.846 102.4-102.4 102.4h-284.16l-125.44 143.36-125.44-143.36z" />
<glyph unicode="&#xe951;" d="M298.385 338.31v-75.262c0-20.657-16.165-37.46-36.049-37.46-19.897 0-36.074 16.803-36.074 37.46v75.262h24.209v0.066h23.705v-0.066h24.209zM262.336 527.054c6.519 0 11.84-5.557 11.84-12.386v-163.106h-23.705v163.106c0 6.829 5.321 12.386 11.865 12.386v0zM291.766 495.859h-4.981v12.583h17.085v12.583h-17.943c-2.736 10.971-12.231 19.137-23.591 19.137-11.386 0-20.88-8.166-23.604-19.137h-18.775v-12.583h17.905v-12.583h-30.009v-12.583h30.009v-12.583h-30.009v-12.583h30.009v-12.583h-17.905v-12.583h17.905v-12.583h-11.146v-12.583h11.146v-56.361h-24.209v-88.369c0-27.892 21.839-50.568 48.683-50.568 26.832 0 48.658 22.675 48.658 50.568v88.369h-24.209v56.361h10.314v12.583h-10.314v12.583h17.085v12.583h-17.085v12.583h29.19v12.583h-29.19v12.583h29.19v12.583h-24.209z" />
<glyph unicode="&#xe952;" d="M396.797 540.16c17.388 0 31.522-14.706 31.522-32.768v-262.144c0-18.062-14.135-32.768-31.522-32.768h-22.204c-17.388 0-31.522 14.706-31.522 32.768v262.144c0 18.062 14.135 32.768 31.522 32.768h22.204zM355.68 382.611h60.031v12.583h-60.031v-12.583zM355.68 407.777h60.031v12.583h-60.031v-12.583zM374.593 527.053c-10.428 0-18.913-8.821-18.913-19.661v-74.449h60.031v74.449c0 10.84-8.486 19.661-18.913 19.661h-22.204zM396.797 225.587c10.428 0 18.913 8.821 18.913 19.661v124.781h-60.031v-124.781c0-10.84 8.486-19.661 18.913-19.661h22.204z" />
<glyph unicode="&#xe953;" d="M367.54 244.199v50.332h12.105v-50.332h-12.105zM367.54 307.114v12.583h12.105v-12.583h-12.105z" />
<glyph unicode="&#xe954;" glyph-name="ic_tried" d="M820.547 621.811c-10.792 10.779-26.947 10.779-37.74 0l-343.565-344.926-144.168 144.182c-10.779 10.765-28.308 10.765-37.726 0-10.792-10.792-10.792-28.308 0-37.74l163.032-163.032c5.389-5.389 12.126-8.071 18.863-8.071s13.474 2.681 18.863 8.071l362.442 363.789c10.779 10.779 10.779 26.947 0 37.726zM512-10.092c-253.305 0-458.105 204.787-458.105 458.092s204.8 458.105 458.105 458.105c253.292 0 458.105-204.8 458.105-458.105s-204.813-458.092-458.105-458.092zM512 960c-282.947 0-512-229.053-512-512 0-282.934 229.053-511.987 512-511.987s512 229.053 512 511.987c0 282.947-229.053 512-512 512z" />
<glyph unicode="&#xe955;" glyph-name="ic_tried_white" d="M820.547 621.811c10.779-10.779 10.779-26.947 0-37.726l-362.442-363.789c-5.389-5.389-12.126-8.071-18.863-8.071s-13.474 2.681-18.863 8.071l-163.032 163.032c-10.792 9.432-10.792 26.947 0 37.74 9.418 10.765 26.947 10.765 37.726 0l144.168-144.182 343.565 344.926c10.792 10.779 26.947 10.779 37.74 0zM512 960c-282.947 0-512-229.053-512-512 0-282.934 229.053-511.987 512-511.987s512 229.053 512 511.987c0 282.947-229.053 512-512 512z" />
<glyph unicode="&#xe956;" glyph-name="ic_twitter" d="M508.366-56.714c-280.758 0-508.357 227.599-508.357 508.357s227.599 508.357 508.357 508.357c280.758 0 508.357-227.599 508.357-508.357s-227.599-508.357-508.357-508.357zM819.753 594.659c-21.785-9.66-45.219-16.194-69.795-19.112 25.093 15.034 44.349 38.821 53.438 67.212-23.48-13.928-49.496-24.032-77.162-29.479-22.166 23.606-53.746 38.359-88.716 38.359-67.095 0-121.512-54.417-121.512-121.512 0-9.524 1.078-18.794 3.163-27.693-100.986 5.066-190.527 53.438-250.463 126.976-10.457-17.943-16.456-38.83-16.456-61.096 0-42.147 21.468-79.355 54.055-101.14-19.909 0.625-38.658 6.090-55.033 15.215-0.009-0.517-0.009-1.033-0.009-1.541 0-58.875 41.902-107.982 97.479-119.137-10.186-2.791-20.942-4.268-32.007-4.268-7.848 0-15.451 0.752-22.863 2.166 15.46-48.264 60.325-83.397 113.51-84.385-41.594-32.596-93.981-52.016-150.927-52.016-9.787 0-19.483 0.571-28.971 1.704 53.746-34.49 117.633-54.598 186.25-54.598 223.504 0 345.731 185.154 345.731 345.74 0 5.265-0.118 10.512-0.353 15.713 23.76 17.127 44.358 38.522 60.643 62.89z" />
<glyph unicode="&#xe957;" glyph-name="ic_upload_photo" d="M297.042 665.974c11.581 0 21.537 7.785 24.178 18.963l8.33 35.531c10.565 44.114 49.981 74.854 96.102 74.854h144.051c46.119 0 85.537-30.74 96.102-74.854l8.33-35.531c2.639-10.979 12.597-18.963 24.178-18.963h181.435c36.368 0 65.829-28.943 65.829-64.674v-431.559c0-38.924-32.104-70.46-71.723-70.46h-752.354c-39.619 0-71.721 31.536-71.721 70.46v431.559c0 35.73 29.46 64.674 65.829 64.674h181.435zM0 601.301v-431.559c0-65.871 54.451-119.365 121.498-119.365h752.559c67.048 0 121.498 53.494 121.498 119.365v431.559c0 62.678-51.81 113.578-115.608 113.578h-161.725l-3.862 16.568c-15.642 66.47-75.175 112.78-144.658 112.78h-144.051c-69.283 0-128.813-46.31-144.66-112.78l-3.86-16.568h-161.524c-63.797 0-115.606-51.1-115.606-113.578v0zM168.432 594.314c18.404 0 33.321-14.655 33.321-32.736 0-18.079-14.917-32.736-33.321-32.736-18.402 0-33.321 14.657-33.321 32.736 0 18.081 14.919 32.736 33.321 32.736zM497.778 537.825c87.771 0 159.289-70.263 159.289-156.494s-71.517-156.494-159.289-156.494c-87.771 0-159.289 70.263-159.289 156.494s71.517 156.494 159.289 156.494zM497.778 175.931c115.2 0 209.067 92.22 209.067 205.399s-93.867 205.399-209.067 205.399c-115.2 0-209.067-92.020-209.067-205.399s93.867-205.399 209.067-205.399z" />
<glyph unicode="&#xe958;" glyph-name="ic_youtube" d="M511.927-63.853c-282.729 0-511.927 229.197-511.927 511.927s229.197 511.927 511.927 511.927c282.729 0 511.927-229.197 511.927-511.927s-229.197-511.927-511.927-511.927zM779.819 546.861c0 42.915-34.766 77.699-77.658 77.699h-364.345c-42.883 0-77.643-34.792-77.643-77.699v-208.352c0-42.915 34.766-77.699 77.643-77.699h364.339c42.9 0 77.658 34.792 77.658 77.699v208.352h0.006zM468.016 354.79v195.692l148.404-97.85z" />
<glyph unicode="&#xe959;" d="M454.76 45.64c0 0-7.388-73.53-56.656-85.784 0 0 263.848-2.828 452.43 178.943s301.86 553.269-140.678 774.453c-442.536 190.459-905.661-321.533-596.912-706.552 117.326-153.6 341.817-161.059 341.817-161.059z" />
<glyph unicode="&#xe95a;" d="M917.914 790.348c-46.028 54.030-97.484 88.504-149.463 113.463-69.301 33.447-140.929 47.598-212.040 52.227-96.194 6.177-192.129-7.719-285.476-52.998-75.768-36.792-154.12-94.681-212.819-199.142-22.238-39.62-40.595-88.247-50.939-144.080-9.829-53.77-9.051-112.174-0.778-166.462 19.394-126.585 88.698-199.397 146.101-246.483 64.646-52.744 133.689-83.618 202.475-103.684 38.788-11.321 77.832-18.267 117.139-21.869 29.476-2.573 58.955-6.432 88.436-2.83 11.892 1.286 12.151 36.535-0.778 35.248-43.698-5.146-88.178 1.544-131.618 8.748-51.203 8.488-102.141 23.67-152.051 46.054-43.96 19.811-87.141 46.052-128.259 82.072-32.579 28.302-63.871 63.552-89.729 111.92-41.888 78.732-50.683 199.397-20.945 297.426 16.035 53.516 40.857 95.453 66.715 129.93 32.584 43.224 68.786 75.128 105.764 100.856 90.244 62.778 186.955 88.507 282.115 91.337 77.059 2.316 154.634-7.719 230.659-35.763 55.596-20.583 110.675-51.715 161.36-101.885 35.685-35.248 70.074-81.82 94.123-145.11 18.618-49.142 28.706-105.233 25.859-167.236-2.842-61.749-21.204-121.439-43.698-168.268-32.323-67.664-74.214-116.548-116.881-154.884-61.543-55.574-127.483-91.851-193.683-117.84-69.042-27.27-139.119-43.222-209.711-51.712 4.396 5.146 8.275 11.063 11.117 18.782 7.502 20.326-10.599 32.675-17.064 14.665 1.293 3.602-0.261 0.772 0 0.772-1.037-1.286-1.81-2.316-2.847-3.345-2.325-2.573-4.911-4.631-7.24-6.947-6.721-5.663-13.964-10.291-20.943-14.923-8.795-5.66-17.845-11.323-26.896-15.952-10.861-5.918-7.758-34.991 3.106-34.219 91.022 6.175 181.783 22.898 271.254 57.632 66.974 25.986 133.433 62.006 195.749 117.065 72.148 63.807 160.323 170.581 175.838 338.332 13.966 149.483-43.96 268.607-103.952 339.104z" />
<glyph unicode="&#xe95b;" d="M241.505 541.46c0-2.64 0.24-4.74 0.72-6.3s1.155-2.76 2.025-3.6c0.87-0.84 1.875-1.395 3.015-1.665s2.37-0.405 3.69-0.405h7.74v-9.81h-63.63v9.81h7.74c1.38 0 2.64 0.135 3.78 0.405s2.13 0.825 2.97 1.665c0.84 0.84 1.5 2.040 1.98 3.6s0.72 3.66 0.72 6.3v98.55h-14.76c-2.76 0-5.070-0.3-6.93-0.9s-3.375-1.455-4.545-2.565c-1.17-1.11-2.040-2.475-2.61-4.095s-0.975-3.45-1.215-5.49l-1.26-11.43h-12.42l0.99 35.73h114.84l0.9-35.73h-12.33l-1.35 11.43c-0.24 2.040-0.645 3.87-1.215 5.49s-1.44 2.985-2.61 4.095c-1.17 1.11-2.685 1.965-4.545 2.565s-4.17 0.9-6.93 0.9h-14.76v-98.55zM369.215 519.68v9.81h7.92c1.32 0 2.55 0.135 3.69 0.405s2.145 0.825 3.015 1.665c0.87 0.84 1.545 2.040 2.025 3.6s0.72 3.66 0.72 6.3v41.22h-48.15v-41.22c0-2.64 0.255-4.74 0.765-6.3s1.185-2.76 2.025-3.6c0.84-0.84 1.83-1.395 2.97-1.665s2.37-0.405 3.69-0.405h7.92v-9.81h-63.63v9.81h7.74c1.32 0 2.55 0.135 3.69 0.405s2.145 0.825 3.015 1.665c0.87 0.84 1.545 2.040 2.025 3.6s0.72 3.66 0.72 6.3v88.74c0 2.46-0.255 4.425-0.765 5.895s-1.2 2.595-2.070 3.375c-0.87 0.78-1.875 1.305-3.015 1.575s-2.34 0.405-3.6 0.405h-7.74v9.81h63.63v-9.81h-7.92c-1.32 0-2.55-0.135-3.69-0.405s-2.13-0.825-2.97-1.665c-0.84-0.84-1.515-2.040-2.025-3.6s-0.765-3.66-0.765-6.3v-35.55h48.15v35.55c0 2.64-0.24 4.74-0.72 6.3s-1.155 2.76-2.025 3.6c-0.87 0.84-1.875 1.395-3.015 1.665s-2.37 0.405-3.69 0.405h-7.92v9.81h63.63v-9.81h-7.74c-1.26 0-2.46-0.135-3.6-0.405s-2.145-0.825-3.015-1.665c-0.87-0.84-1.545-2.040-2.025-3.6s-0.72-3.66-0.72-6.3v-89.010c0-2.4 0.255-4.335 0.765-5.805s1.2-2.58 2.070-3.33c0.87-0.75 1.86-1.245 2.97-1.485s2.295-0.36 3.555-0.36h7.74v-9.81h-63.63zM478.115 562.97l-5.31-15.84c-0.48-1.5-0.975-3.255-1.485-5.265s-0.765-3.765-0.765-5.265c0-1.2 0.24-2.25 0.72-3.15s1.11-1.635 1.89-2.205c0.78-0.57 1.665-1.005 2.655-1.305s2.025-0.45 3.105-0.45h7.74v-9.81h-47.97v9.81h2.25c1.62 0 3.105 0.18 4.455 0.54s2.61 1.035 3.78 2.025c1.17 0.99 2.28 2.355 3.33 4.095s2.115 3.99 3.195 6.75l39.96 108.36h25.29l38.52-108.54c0.9-2.58 1.845-4.725 2.835-6.435s2.070-3.060 3.24-4.050c1.17-0.99 2.415-1.695 3.735-2.115s2.7-0.63 4.14-0.63h3.33v-9.81h-60.84v9.81h7.2c0.9 0 1.83 0.135 2.79 0.405s1.815 0.69 2.565 1.26c0.75 0.57 1.365 1.305 1.845 2.205s0.72 1.98 0.72 3.24c0 1.5-0.18 2.94-0.54 4.32s-0.72 2.58-1.080 3.6l-6.48 18.45h-44.82zM509.525 604.46c-0.66 2.1-1.335 4.305-2.025 6.615s-1.38 4.665-2.070 7.065c-0.69 2.4-1.35 4.785-1.98 7.155s-1.185 4.635-1.665 6.795c-0.54-1.86-1.17-3.9-1.89-6.12s-1.485-4.5-2.295-6.84l-2.43-7.020c-0.81-2.34-1.575-4.59-2.295-6.75l-10.89-31.14h37.26l-9.72 30.24zM684.755 519.68l-71.91 101.52v-79.74c0-2.64 0.255-4.74 0.765-6.3s1.185-2.76 2.025-3.6c0.84-0.84 1.845-1.395 3.015-1.665s2.385-0.405 3.645-0.405h7.74v-9.81h-48.15v9.81h7.74c1.32 0 2.55 0.135 3.69 0.405s2.145 0.825 3.015 1.665c0.87 0.84 1.545 2.040 2.025 3.6s0.72 3.66 0.72 6.3v88.83c0 2.46-0.255 4.425-0.765 5.895s-1.2 2.595-2.070 3.375c-0.87 0.78-1.875 1.305-3.015 1.575s-2.34 0.405-3.6 0.405h-7.74v9.72h40.95l65.070-91.98v71.010c0 2.46-0.255 4.425-0.765 5.895s-1.2 2.595-2.070 3.375c-0.87 0.78-1.875 1.305-3.015 1.575s-2.34 0.405-3.6 0.405h-7.74v9.72h48.15v-9.72h-7.74c-1.26 0-2.46-0.135-3.6-0.405s-2.145-0.825-3.015-1.665c-0.87-0.84-1.545-2.040-2.025-3.6s-0.72-3.66-0.72-6.3v-109.89h-17.010zM802.025 617.78c1.98 2.1 3.645 4.005 4.995 5.715s2.43 3.3 3.24 4.77c0.81 1.47 1.395 2.865 1.755 4.185s0.54 2.61 0.54 3.87c0 2.040-0.78 3.45-2.34 4.23s-4.23 1.17-8.010 1.17v9.54h49.95v-9.54c-2.52 0-4.905-0.39-7.155-1.17s-4.455-1.89-6.615-3.33c-2.16-1.44-4.29-3.15-6.39-5.13s-4.23-4.17-6.39-6.57l-24.3-26.73 34.29-54.45c1.8-2.88 3.525-5.265 5.175-7.155s3.315-3.405 4.995-4.545c1.68-1.14 3.39-1.95 5.13-2.43s3.63-0.72 5.67-0.72h0.72v-9.81h-9.9c-4.68 0-8.79 0.15-12.33 0.45s-6.645 0.75-9.315 1.35c-2.67 0.6-4.965 1.365-6.885 2.295s-3.6 2.025-5.040 3.285c-1.44 1.26-2.745 2.685-3.915 4.275s-2.325 3.345-3.465 5.265l-24.84 42.39-8.19-6.39v-31.14c0-2.64 0.255-4.74 0.765-6.3s1.185-2.76 2.025-3.6c0.84-0.84 1.86-1.395 3.060-1.665s2.46-0.405 3.78-0.405h7.74v-9.81h-63.63v9.81h7.74c1.32 0 2.55 0.12 3.69 0.36s2.145 0.735 3.015 1.485c0.87 0.75 1.545 1.86 2.025 3.33s0.72 3.405 0.72 5.805v89.82c0 2.46-0.24 4.425-0.72 5.895s-1.155 2.595-2.025 3.375c-0.87 0.78-1.875 1.305-3.015 1.575s-2.37 0.405-3.69 0.405h-7.74v9.72h63.63v-9.72h-7.74c-1.32 0-2.58-0.135-3.78-0.405s-2.22-0.825-3.060-1.665c-0.84-0.84-1.515-2.040-2.025-3.6s-0.765-3.66-0.765-6.3v-43.020l28.62 31.23zM301.805 273.92v9.81h8.64c1.5 0 2.895 0.090 4.185 0.27s2.415 0.645 3.375 1.395c0.96 0.75 1.725 1.875 2.295 3.375s0.855 3.54 0.855 6.12v25.65l-34.11 65.43c-0.9 1.8-1.755 3.33-2.565 4.59s-1.695 2.265-2.655 3.015c-0.96 0.75-2.055 1.305-3.285 1.665s-2.745 0.54-4.545 0.54h-2.43v9.72h61.74v-9.72h-3.15c-3.72 0-6.495-0.75-8.325-2.25s-2.745-3.51-2.745-6.030c0-1.56 0.285-3.255 0.855-5.085s1.215-3.525 1.935-5.085l13.68-27.090c1.92-3.9 3.495-7.35 4.725-10.35s2.355-5.94 3.375-8.82c1.26 3.24 2.715 6.765 4.365 10.575s3.495 7.785 5.535 11.925l10.71 22.050c1.32 2.7 2.175 4.965 2.565 6.795s0.585 3.255 0.585 4.275c0 3.18-1.005 5.49-3.015 6.93s-5.055 2.16-9.135 2.16h-4.23v9.72h48.24v-9.72h-3.51c-1.56 0-2.895-0.21-4.005-0.63s-2.16-1.17-3.15-2.25c-0.99-1.080-2.010-2.55-3.060-4.41s-2.295-4.23-3.735-7.11l-31.32-61.020v-25.2c0-2.7 0.27-4.8 0.81-6.3s1.275-2.64 2.205-3.42c0.93-0.78 2.010-1.26 3.24-1.44s2.565-0.27 4.005-0.27h9.090v-9.81h-68.040zM534.185 339.89c0-10.14-1.365-19.38-4.095-27.72s-6.75-15.48-12.060-21.42c-5.31-5.94-11.82-10.53-19.53-13.77s-16.575-4.86-26.595-4.86c-10.5 0-19.665 1.62-27.495 4.86s-14.325 7.83-19.485 13.77c-5.16 5.94-9.030 13.095-11.61 21.465s-3.87 17.655-3.87 27.855c0 10.2 1.29 19.455 3.87 27.765s6.465 15.405 11.655 21.285c5.19 5.88 11.7 10.425 19.53 13.635s17.025 4.815 27.585 4.815c9.96 0 18.795-1.605 26.505-4.815s14.205-7.77 19.485-13.68c5.28-5.91 9.285-13.020 12.015-21.33s4.095-17.595 4.095-27.855zM440.405 339.89c0-8.82 0.57-16.68 1.71-23.58s2.97-12.735 5.49-17.505c2.52-4.77 5.775-8.415 9.765-10.935s8.835-3.78 14.535-3.78c5.76 0 10.635 1.26 14.625 3.78s7.215 6.165 9.675 10.935c2.46 4.77 4.245 10.605 5.355 17.505s1.665 14.76 1.665 23.58c0 8.82-0.555 16.68-1.665 23.58s-2.895 12.735-5.355 17.505c-2.46 4.77-5.67 8.4-9.63 10.89s-8.79 3.735-14.49 3.735c-5.76 0-10.65-1.245-14.67-3.735s-7.29-6.12-9.81-10.89c-2.52-4.77-4.35-10.605-5.49-17.505s-1.71-14.76-1.71-23.58zM679.085 395.78h-7.92c-1.26 0-2.46-0.135-3.6-0.405s-2.145-0.825-3.015-1.665c-0.87-0.84-1.545-2.040-2.025-3.6s-0.72-3.66-0.72-6.3v-71.91c0-6.18-0.885-11.73-2.655-16.65s-4.53-9.090-8.28-12.51c-3.75-3.42-8.535-6.045-14.355-7.875s-12.75-2.745-20.79-2.745c-8.040 0-15.225 0.765-21.555 2.295s-11.685 3.975-16.065 7.335c-4.38 3.36-7.725 7.695-10.035 13.005s-3.465 11.745-3.465 19.305v70.47c0 2.46-0.255 4.425-0.765 5.895s-1.2 2.595-2.070 3.375c-0.87 0.78-1.86 1.305-2.97 1.575s-2.295 0.405-3.555 0.405h-7.92v9.72h63.54v-9.72h-7.74c-1.26 0-2.46-0.135-3.6-0.405s-2.145-0.825-3.015-1.665c-0.87-0.84-1.545-2.040-2.025-3.6s-0.72-3.66-0.72-6.3v-71.19c0-5.16 0.645-9.495 1.935-13.005s3.135-6.33 5.535-8.46c2.4-2.13 5.28-3.66 8.64-4.59s7.14-1.395 11.34-1.395c4.080 0 7.77 0.525 11.070 1.575s6.105 2.685 8.415 4.905c2.31 2.22 4.095 5.040 5.355 8.46s1.89 7.47 1.89 12.15v72.27c0 2.46-0.24 4.425-0.72 5.895s-1.155 2.595-2.025 3.375c-0.87 0.78-1.875 1.305-3.015 1.575s-2.34 0.405-3.6 0.405h-7.74v9.72h48.24v-9.72zM701.225 405.5h32.040l-10.8-89.55h-10.35l-10.89 89.55zM702.305 287.15c0 2.82 0.39 5.175 1.17 7.065s1.845 3.405 3.195 4.545c1.35 1.14 2.955 1.95 4.815 2.43s3.84 0.72 5.94 0.72c2.040 0 3.975-0.24 5.805-0.72s3.435-1.29 4.815-2.43c1.38-1.14 2.475-2.655 3.285-4.545s1.215-4.245 1.215-7.065c0-2.76-0.405-5.070-1.215-6.93s-1.905-3.36-3.285-4.5c-1.38-1.14-2.985-1.965-4.815-2.475s-3.765-0.765-5.805-0.765c-2.1 0-4.080 0.255-5.94 0.765s-3.465 1.335-4.815 2.475c-1.35 1.14-2.415 2.64-3.195 4.5s-1.17 4.17-1.17 6.93z" />
<glyph unicode="&#xe95c;" d="M512-64c-283.307 0-512 228.693-512 512s228.693 512 512 512c283.307 0 512-228.693 512-512s-228.693-512-512-512zM512 942.933c-273.067 0-494.933-221.867-494.933-494.933s221.867-494.933 494.933-494.933 494.933 221.867 494.933 494.933-221.867 494.933-494.933 494.933z" />
<glyph unicode="&#xe95d;" d="M529.067 448v341.333h-17.067v-341.333h-341.333v-17.067h341.333v-324.267h17.067v324.267h324.267v17.067h-324.267z" />
<glyph unicode="&#xe95e;" glyph-name="ic_check_circle_24px" d="M512 960c-282.77 0-512-229.23-512-512s229.23-512 512-512c282.77 0 512 229.23 512 512v0c0 282.77-229.23 512-512 512v0zM409.6 192l-256 256 72.192 72.192 183.808-183.296 388.608 388.608 72.192-72.704z" />
<glyph unicode="&#xe95f;" glyph-name="wishlist_red" horiz-adv-x="1121" d="M557.669-32l-16.741 13.079c-20.403 15.172-505.897 385.569-505.897 657.090 0.297 159.95 129.881 289.534 289.802 289.831h0.029c0.116 0 0.254 0 0.392 0 94.278 0 178.023-45.096 230.842-114.893l0.526-0.726c53.575 70.441 137.393 115.488 231.739 115.618h0.022c0 0 0 0 0.001 0 160.175 0 290.056-129.698 290.354-289.803v-0.028c-4.194-58.801-23.13-112.441-53.093-158.212l0.776 1.264-45.515 26.158c25.886 37.479 43.171 82.762 48.036 131.701l0.095 1.182c-0.297 131.24-106.757 237.515-238.038 237.515 0 0 0 0 0 0v0c-0.353 0.002-0.772 0.003-1.19 0.003-89.018 0-166.624-48.864-207.458-121.233l-0.617-1.19-7.325-13.602h-30.866l-9.417 13.602c-41.581 73.569-119.276 122.422-208.382 122.422-0.31 0-0.621-0.001-0.931-0.002h0.048c-131.056-0.297-237.218-106.459-237.515-237.487v-0.028c0-219.204 382.954-534.67 468.229-602.681 22.496 19.88 65.395 58.594 116.141 108.294l36.622-37.668c-75.335-73.242-133.929-123.466-134.452-123.989zM924.405 97.743h-261.58v161.134h-161.657v261.58h161.657v161.134h261.58v-161.134h161.657v-261.58h-161.657zM715.141 150.060h156.948v161.134h161.657v156.948h-161.657v161.134h-156.948v-161.134h-161.657v-156.948h161.657z" />
<glyph unicode="&#xe960;" glyph-name="wishlist_white" horiz-adv-x="1121" d="M557.48-64l-17.857 13.951c-21.763 16.183-539.623 411.274-539.623 700.896 0.317 170.613 138.54 308.836 309.122 309.153h0.031c0.124 0 0.271 0 0.418 0 100.563 0 189.891-48.102 246.231-122.553l0.561-0.774c57.147 75.137 146.553 123.187 247.188 123.326h0.023c0 0 0 0 0.001 0 170.853 0 309.393-138.345 309.711-309.123v-0.030c-4.474-62.721-24.672-119.937-56.632-168.759l0.828 1.348-48.549 27.902c27.612 39.978 46.049 88.28 51.238 140.481l0.101 1.261c-0.317 139.989-113.874 253.349-253.907 253.349 0 0 0 0 0 0v0c-0.377 0.002-0.823 0.003-1.269 0.003-94.953 0-177.732-52.122-221.288-129.315l-0.658-1.269-7.813-14.509h-32.924l-10.045 14.509c-44.353 78.474-127.228 130.583-222.274 130.583-0.331 0-0.662-0.001-0.993-0.002h0.051c-139.793-0.317-253.033-113.556-253.349-253.319v-0.030c0-233.818 408.484-570.315 499.444-642.86 23.996 21.205 69.755 62.5 123.884 115.514l39.063-40.179c-80.357-78.125-142.858-131.697-143.416-132.255zM948.665 74.393h-279.019v171.876h-172.434v279.019h172.434v171.876h279.019v-171.876h172.434v-279.019h-172.434zM725.45 130.197h167.411v171.876h172.434v167.411h-172.434v171.876h-167.411v-171.876h-172.434v-167.411h172.434z" />
<glyph unicode="&#xe961;" glyph-name="ic_warning16x16" d="M512-64c-282.638 0.327-511.672 229.362-512 511.968v0.032c0.327 282.638 229.362 511.672 511.968 512h0.032c282.638-0.327 511.672-229.362 512-511.968v-0.032c-0.327-282.638-229.362-511.672-511.968-512h-0.032zM504.576 321.024c-0.375 0.008-0.818 0.012-1.261 0.012-18.296 0-34.841-7.497-46.73-19.587l-0.009-0.009c-12.099-11.868-19.598-28.388-19.598-46.66 0-0.471 0.005-0.941 0.015-1.41l-0.001 0.070c-0.009-0.399-0.014-0.869-0.014-1.34 0-18.271 7.499-34.791 19.587-46.649l0.010-0.010c11.898-12.099 28.443-19.596 46.739-19.596 0.444 0 0.886 0.004 1.328 0.013l-0.066-0.001c0.386-0.008 0.842-0.013 1.298-0.013 18.305 0 34.858 7.497 46.758 19.588l0.008 0.009c12.099 11.898 19.596 28.443 19.596 46.739 0 0.444-0.004 0.886-0.013 1.328l0.001-0.066c0.008 0.375 0.012 0.818 0.012 1.261 0 18.296-7.497 34.841-19.587 46.73l-0.009 0.009c-11.908 12.1-28.461 19.597-46.766 19.597-0.456 0-0.912-0.005-1.366-0.014l0.068 0.001zM436.992 728.832v-95.232l22.272-276.48h90.624l23.040 276.48v95.232z" />
<glyph unicode="&#xe962;" glyph-name="logo_fd" horiz-adv-x="4108" d="M451.52 483.975c5.45 1.090 9.266 2.181 12.537 2.726-18.533-121.553-36.52-275.264-34.885-323.777 1.090-25.073 19.078-43.606 43.606-43.606 7.631 0 15.262 1.635 22.348 5.45 110.651 53.963 179.33 71.406 293.252 100.294 26.709 6.541 33.795 29.435 31.614 46.332-2.726 20.168-17.988 40.335-43.061 40.335-3.816 0-7.631-0.545-11.992-1.635-97.569-24.528-162.433-42.516-243.65-76.856 1.635 19.078 3.816 40.881 7.086 64.865 15.807 6.541 30.524 12.537 44.151 17.988 75.766 31.614 125.913 52.328 215.851 76.856 26.709 7.086 33.25 29.98 31.069 47.422-2.726 19.623-17.988 39.245-41.971 39.245-3.816 0-8.176-0.545-12.537-1.635-91.028-25.073-141.176-45.787-217.486-77.401l-5.996-2.181c6.541 47.422 13.626 93.208 19.623 128.638 64.32 27.799 123.733 42.516 216.941 61.049 21.803 4.36 34.34 21.259 32.159 43.606-2.181 20.713-18.533 43.061-45.242 43.061-3.271 0-6.541-0.545-9.266-1.090-74.13-14.717-131.364-27.799-187.507-48.512-1.635 2.726-3.271 4.905-4.905 6.541-8.721 8.721-20.713 13.626-33.795 13.626-16.352 0-35.975-8.176-41.426-32.159-0.545-2.181-1.635-6.541-3.271-10.902v-0.545c-2.181-8.176-4.905-17.988-6.541-25.073-11.447-3.271-52.873-10.902-93.208-17.443l-2.181-0.545c-47.422-8.176-100.839-17.443-134.634-25.073 1.090 26.164 2.181 49.057 2.726 69.77 0.545 12.537 1.090 25.619 1.090 38.701v7.086c39.245 5.996 78.491 11.992 125.369 19.078h1.090c51.237 8.176 109.56 16.897 165.704 25.073 9.812 1.635 18.533 7.086 24.528 16.352 7.086 10.357 9.266 24.528 5.996 35.975-5.45 19.078-21.259 30.524-41.971 30.524-2.726 0-5.45 0-8.721-0.545-53.418-7.631-107.926-15.807-160.253-23.983l-2.726 0.545c-34.885-5.45-68.68-10.902-103.565-15.807 2.181 13.081 4.36 25.073 7.631 35.975 4.905 16.352-0.545 28.344-5.45 34.885-8.176 10.902-21.803 17.443-35.975 17.443-19.078 0-33.795-10.902-39.245-29.98-5.996-20.713-9.812-43.061-12.537-70.86-48.512-6.541-91.573-11.992-131.364-16.352-24.528-2.726-41.426-19.623-41.426-41.971 0-20.713 19.078-44.697 43.061-41.971 38.156 3.816 79.582 9.266 125.369 15.262 0-6.541-0.545-13.081-0.545-19.623-1.635-31.614-3.271-64.865-4.905-107.926-15.807-4.905-30.524-9.812-44.151-15.262-18.533-7.086-31.614-28.89-29.435-49.602 1.635-16.897 13.626-28.89 31.069-31.614 11.992-1.635 20.713-1.635 31.069 0.545 2.181 0.545 4.905 1.090 8.176 1.635l-1.090-33.25c-3.271-86.122-5.996-175.516-10.902-263.273-0.545-11.447 2.726-21.803 9.812-28.89 7.631-7.631 18.533-12.537 30.524-12.537 20.713 0 42.516 13.626 44.151 40.335 4.905 88.303 8.176 177.695 10.902 264.362l2.181 55.053c46.332 11.992 149.897 32.704 199.499 43.061l7.631 2.181zM485.316 602.802v0 0 0zM2376.192 323.177c-2.726 20.168-17.988 40.335-43.061 40.335-3.816 0-7.631-0.545-11.992-1.635-101.929-26.164-176.061-45.787-261.638-81.762 1.090 18.533 3.271 40.335 5.996 65.409 0.545 0 1.090 0.545 1.635 0.545 26.164 10.902 47.966 20.168 62.684 26.164 55.053 23.438 85.032 35.975 165.704 58.323 26.709 7.086 33.25 29.98 31.069 47.422-2.726 19.623-17.988 39.245-41.971 39.245-4.36 0-8.176-0.545-12.537-1.635-82.306-22.348-112.286-35.43-167.885-58.868-8.176-3.816-16.897-7.086-26.709-11.447 6.541 47.422 14.172 96.479 21.259 137.36 28.344 11.992 58.323 20.168 87.213 27.254 39.245 9.812 63.229 14.172 91.573 18.533h0.545c14.172 2.726 32.159 5.45 55.598 9.812 21.803 4.36 34.34 21.259 32.704 43.061-2.181 20.713-18.533 43.061-45.242 43.061-3.271 0-6.541-0.545-9.266-1.090-22.893-4.36-45.242-8.176-67.044-11.992-43.606-7.086-88.303-14.717-131.364-27.799-2.181 5.45-4.905 10.902-9.266 15.262-8.721 8.721-20.713 13.626-33.795 13.626-16.352 0-35.975-8.176-41.426-32.159-2.181-8.721-4.905-21.803-8.176-38.156-18.533-11.447-35.43-24.528-51.237-39.245-13.081-12.537-17.443-28.344-10.902-44.697 6.541-17.443 24.528-29.98 42.516-30.524-19.078-122.098-37.066-269.269-31.069-318.871 3.271-25.073 21.259-42.516 44.151-42.516 7.086 0 14.717 1.635 21.803 5.45 110.106 53.418 192.958 74.675 307.969 104.11 27.254 7.631 34.34 29.98 32.159 47.422zM1178.655 109.506c4.905 60.504 12.537 130.819 19.623 198.408v1.635c4.905 47.422 10.357 97.024 14.172 141.176 4.36 48.512 9.812 100.839 15.807 155.347 0.545 4.905 1.090 9.812 1.635 15.262 2.726 26.164 5.996 53.418 12.537 79.036 2.726 11.447 0.545 22.893-6.541 31.614-7.631 10.357-21.259 16.352-34.885 16.352-14.717 0-27.254-7.086-34.34-19.623-16.352-28.89-31.614-58.868-45.787-87.213-9.266-17.988-19.078-38.701-29.435-57.778-19.078-35.975-35.43-64.32-51.237-89.393-4.905-7.631-9.812-15.262-14.717-22.348-8.176 21.803-26.709 75.766-38.156 116.102-7.631 26.709-16.352 53.418-24.528 79.582-3.816 11.992-7.631 24.528-11.447 35.975-0.545 3.271-1.090 6.541-1.635 9.812v0.545c-0.545 1.635-2.726 8.176-4.905 11.447-5.996 11.992-19.623 19.623-35.43 19.623-7.631 0-14.717-1.635-20.713-4.905-4.36-2.181-8.721-5.45-11.992-9.812-1.090-1.090-2.181-2.181-3.271-3.816-3.816-4.905-5.996-10.902-6.541-16.352-3.271-11.447-3.816-23.983-4.36-34.885-0.545-5.45-0.545-10.902-1.090-15.262-6.541-46.877-10.357-96.479-12.537-161.343-3.816-102.475-7.631-242.015-9.266-363.022 0-10.357 3.271-19.623 10.357-26.709 7.631-7.631 18.533-11.992 30.524-11.992 20.168 0 40.881 13.081 41.426 38.156 1.090 62.684 3.271 134.634 4.905 204.404 1.635 47.966 2.726 87.213 3.271 124.278 0 10.902 0.545 22.348 1.090 33.25 17.988-49.602 39.245-86.122 67.044-114.467 6.541-7.086 17.443-10.902 28.89-10.902 8.176 0 15.807 2.181 21.803 6.541 37.611 27.254 63.775 70.86 86.122 113.922-1.090-11.447-2.181-23.438-3.271-34.885-3.816-43.061-9.266-91.028-14.172-137.36v-2.181c-7.631-70.86-15.262-143.9-20.168-207.675-1.090-10.357 2.181-19.623 8.176-26.164 6.541-7.086 17.443-11.447 28.89-11.447 20.168-1.090 41.971 11.992 44.151 37.066zM1308.929 153.658c17.443 54.508 33.795 110.106 45.787 152.622 43.606 22.348 83.942 42.516 122.643 61.594 26.164-85.577 54.508-161.888 86.667-233.293 5.996-13.626 21.259-22.348 38.156-22.348 8.176 0 16.352 2.181 22.348 5.996 20.168 11.992 26.709 35.975 16.352 59.413-29.98 67.044-57.233 142.266-83.397 230.023 21.803 10.357 41.426 20.168 59.959 28.89 17.988 8.176 26.709 25.073 22.348 43.606s-21.259 37.611-45.787 37.611c-6.541 0-13.081-1.635-19.623-4.36-13.626-6.541-27.254-13.081-41.426-19.623-10.357 38.701-20.713 80.127-33.25 134.090-4.36 17.988-8.721 35.975-14.172 55.598-2.181 7.631-3.816 15.807-5.45 23.983l-0.545 2.181c5.45 12.537 4.36 26.164-2.726 38.156-7.631 13.081-23.983 22.348-39.79 22.348-8.176 0-15.807-2.181-21.803-7.086-11.447-8.721-19.078-19.623-22.348-33.25l-1.635 0.545-1.635-8.176c-39.79-108.47-71.951-220.212-102.475-328.682l-7.086-25.073-3.271-1.635c-2.726-0.545-4.905-1.635-7.631-3.271s-5.45-3.271-8.176-4.36c-2.181-1.635-4.905-2.726-7.631-4.36l-7.631-3.816 0.545-0.545c-12.537-9.812-17.988-25.073-13.626-40.881 2.726-12.537 10.902-23.438 21.803-29.98-11.447-38.156-20.713-70.315-30.524-100.294-5.45-16.897 0-29.435 4.905-36.52 8.176-11.447 22.893-18.533 38.156-18.533 20.168-1.090 35.975 10.357 41.971 29.435zM1387.965 422.381c10.357 36.52 24.528 83.942 39.245 133l0.545-3.271c4.905-21.259 10.357-45.242 16.897-68.68 2.726-9.812 4.905-19.078 7.631-28.89-20.168-10.357-41.426-20.713-64.32-32.159zM1908.515 279.026c-7.086 0-14.717-1.635-21.259-5.45-36.52-19.623-65.954-32.159-95.389-40.881-15.262-4.36-31.069-6.541-46.877-7.086 0 0-0.545 0-1.635 0-2.181 11.992 1.090 29.435 3.271 43.606 4.36 24.528 9.266 52.328 13.626 80.127 23.438 160.798 35.975 289.981 40.335 418.621 0.545 11.992-3.271 22.348-10.902 30.524s-19.623 13.081-32.159 13.081c-21.803 0-44.697-14.717-45.787-42.516-5.996-166.794-20.713-309.059-45.787-449.144-0.545-4.36-1.635-9.266-2.726-14.172l-0.545-1.635c-10.357-52.328-22.893-117.191 28.89-152.076 15.262-9.812 33.25-14.717 55.598-14.717 20.168 0 40.881 3.816 59.959 8.176 44.151 10.357 85.577 30.524 123.733 51.782 17.988 9.812 25.619 27.254 20.713 46.332-4.36 17.443-20.713 35.43-43.061 35.43zM3427.104 251.227c-1.090 0-2.181 0-3.271 0-35.975 0-55.598-28.89-56.144-57.233-0.545-27.254 16.352-57.778 53.963-59.413 1.090 0 2.181 0 2.726 0 35.975 0 55.598 28.89 56.144 57.233 1.635 27.799-15.262 57.778-53.418 59.413zM2985.59 575.548c-11.992 86.667-65.409 160.798-138.995 194.048-25.073 11.447-52.873 17.443-79.582 17.443-51.237 0-96.479-21.259-126.458-59.959-9.266-11.992-16.352-23.438-22.348-34.885-7.086-15.262-6.541-31.069 2.181-45.242 6.541-10.357 16.897-17.988 28.344-21.803-2.181-65.409-2.726-133.545-1.635-201.679 1.090-47.966 2.726-104.11 9.266-161.343l1.090-9.812c-7.086-1.090-14.172-1.090-21.259-1.635-29.435-0.545-44.697-24.528-44.697-47.422 0-21.803 14.172-44.697 44.151-44.697h1.090c13.626 0.545 27.799 1.635 42.516 3.816 2.181-4.905 4.905-8.721 7.631-11.992 10.357-13.626 24.528-21.803 39.79-21.803 7.631 0 15.262 2.181 22.348 6.541 10.902 6.541 19.623 18.533 22.348 32.159 1.635 8.176 1.090 15.807-1.635 22.893 47.966 22.348 92.118 55.598 127.548 97.024 70.315 81.762 102.475 186.961 88.303 288.347zM2744.12 692.74c8.176 2.726 12.537 3.271 20.168 3.271h4.905c10.357 0 18.533-2.181 31.069-6.541 45.787-15.262 82.306-64.865 93.753-125.369 12.537-68.68-11.992-153.167-63.229-215.306-22.893-28.344-51.782-51.782-83.397-68.68-5.45 51.237-7.086 104.11-7.631 153.712-1.635 87.758 0 174.97 4.36 258.912zM3308.821 394.582c-6.541 61.594-13.626 125.369-25.619 187.507-8.176 43.061-17.443 88.303-33.795 131.909-7.086 19.623-15.262 38.156-29.98 51.782-10.902 9.812-25.073 15.262-39.245 15.262-15.262 0-29.435-6.541-40.335-17.988-11.992-13.081-15.262-29.98-9.266-46.332 0-0.545 0-0.545 0.545-0.545-0.545-1.090-1.090-2.726-1.635-3.816-16.352-44.151-31.614-89.393-45.787-133.545v-0.545c-15.807-48.512-30.524-92.663-46.877-135.724-22.348-7.086-28.344-27.254-26.709-42.516 0.545-4.905 2.181-9.812 4.36-14.172-7.631-18.533-16.352-39.79-22.893-61.049-9.266-28.89-19.623-70.86-5.45-107.381 7.631-20.168 24.528-32.704 44.151-32.704 3.816 0 8.176 0.545 11.992 1.635 11.992 3.271 23.438 13.081 29.435 24.528 5.45 10.902 6.541 22.348 2.181 32.704-7.086 18.533 1.635 44.151 9.812 66.499l1.635 5.45c5.996 17.988 13.626 35.43 20.713 52.873l2.181 4.905c31.614 6.541 64.32 12.537 110.106 20.168l2.181-20.713c8.721-78.491 17.443-159.708 36.52-237.655 4.905-20.713 21.259-33.795 41.971-33.795 15.262 0 29.98 7.086 39.245 18.533 5.996 7.631 11.992 20.713 7.631 38.701-19.623 77.401-28.344 158.073-37.066 236.019zM3207.437 475.799c-25.073-4.36-46.332-7.631-65.409-11.447 9.812 28.344 19.623 57.778 28.89 85.032l1.090 3.271c4.36 13.081 9.266 28.344 14.717 44.151 4.36-19.078 8.176-39.79 12.537-64.32 1.090-5.996 2.181-11.992 2.726-17.988 0.545-2.181 0.545-4.905 1.090-7.086l1.090-7.631c0-2.181 0.545-3.271 0.545-3.816 0.545-6.541 1.635-13.081 2.726-20.168zM3470.71 517.77c0.545 8.176 1.090 16.352 1.635 25.073v1.090c1.090 17.988 1.635 28.89 2.726 36.52v1.635c1.090 14.172 1.635 22.348 2.726 55.053 0 3.271 0 6.541 0.545 9.266v4.905c1.090 32.159 2.726 65.409-5.996 95.934-6.541 25.073-27.799 33.795-44.697 33.795-15.262 0-29.98-7.086-38.156-17.988-5.45-7.086-11.447-19.623-6.541-37.611 1.090-4.905 2.181-9.812 2.726-14.172v-2.726c0.545-4.905 0.545-9.812 0.545-13.626 0.545-21.803 0-44.151-1.090-65.954-1.090-32.159-2.181-43.061-3.271-58.868v-0.545c-0.545-9.812-1.635-22.348-3.271-44.697l-1.090-17.988c-2.181-38.156-3.816-65.954-3.816-109.015 0-2.181 0-4.905 0-7.086v-1.090c0-34.885 0-92.663 44.151-99.749 3.816-0.545 7.631-1.090 10.902-1.090 15.262 0 26.709 5.45 34.34 15.807 12.537 17.443 8.721 41.971 4.905 54.508-1.090 2.726-1.635 6.541-1.635 8.721 0 0.545 0 1.635 0 3.271v0.545c0 1.635 0 2.726-0.545 3.816 0 4.36-0.545 8.176-0.545 12.537v1.090c0 9.812 0 20.168 0 28.89 1.635 40.335 3.271 65.409 5.45 99.749zM4069.75 757.059c-13.081 0-24.528-5.996-32.159-16.352l-1.635 0.545-3.271-10.357c-17.443-50.147-38.156-100.294-59.959-153.712v-0.545c-9.266-22.348-16.897-41.426-24.528-59.959-19.623 28.344-39.79 58.323-62.139 91.573-7.631 11.447-11.447 16.897-14.717 21.259-4.36 5.45-7.086 9.266-15.807 24.528-6.541 11.447-12.537 21.803-17.988 32.159-2.181 3.816-3.816 8.176-5.996 12.537l-1.090 2.181c-0.545 1.635-1.090 3.271-1.635 4.36-4.905 16.352-19.078 26.709-35.975 26.709-13.081 0-25.073-5.996-32.159-15.807-4.905-6.541-9.266-17.443-4.36-32.704v-0.545c20.168-46.332 30.524-61.594 52.328-94.844 3.271-4.905 6.541-9.812 9.812-15.262v-0.545c33.795-52.328 65.954-98.66 97.024-141.721-34.885-97.024-53.418-176.061-57.778-248.010-0.545-10.357 2.181-19.623 8.721-26.709s16.897-11.447 27.254-11.447c18.533 0 38.156 12.537 39.79 36.52 7.631 123.733 60.504 250.191 111.196 372.834l0.545 1.090c16.897 40.881 33.25 79.582 47.422 118.282 2.181 3.271 4.36 7.086 5.45 11.447s2.726 8.176 3.816 13.081c1.090 3.816 2.181 7.631 3.271 11.447 4.905 14.717 0.545 25.619-4.36 32.159-5.996 9.812-17.988 15.807-31.069 15.807zM3775.408 291.017c-7.086 0-14.717-2.181-21.803-5.996-33.25-17.988-60.504-29.98-87.213-37.611-13.081-3.816-26.709-5.996-40.335-6.541-1.090 10.357 1.635 23.983 3.271 35.43v1.090c3.816 22.348 8.721 47.966 12.537 73.585 20.713 143.9 33.25 274.174 37.611 398.452 0.545 12.537-3.271 22.893-10.902 31.069-8.176 8.176-19.623 13.081-32.159 13.081-21.803 0-44.697-14.717-45.787-43.061-4.905-125.913-18.533-265.453-42.516-426.252-1.090-5.996-2.181-12.537-3.271-20.168-8.721-47.422-19.078-106.291 28.89-138.45 14.717-9.812 32.159-14.717 53.418-14.717 19.078 0 38.156 3.816 56.144 8.176 41.426 9.266 79.582 28.89 115.557 47.966 17.988 9.812 26.164 27.799 21.259 47.422-5.45 17.988-22.348 36.52-44.697 36.52z" />
<glyph unicode="&#xe963;" glyph-name="ic_comment" horiz-adv-x="1023" d="M510.977 962.046h398.45c4.444 0.705 9.569 1.108 14.788 1.108 54.803 0 99.229-44.426 99.229-99.229 0-4.902-0.355-9.72-1.042-14.432l0.064 0.536q0-301.267 0-602.533c0.433-3.537 0.681-7.631 0.681-11.783 0-56.497-45.8-102.298-102.298-102.298-3.663 0-7.28 0.192-10.843 0.568l0.444-0.038c-107.413 0-107.413 0-107.413-109.459q0-5.115 0-10.23c0-40.919-3.069-64.448-14.833-72.631s-35.804 0-75.7 22.505c-59.124 36.488-108.629 82.569-147.818 136.618l-1.025 1.484c-13.748 19.728-36.325 32.476-61.878 32.476-2.165 0-4.308-0.091-6.426-0.271l0.276 0.019c-127.872 0-255.744 0-383.105 0-3.257-0.368-7.033-0.578-10.858-0.578-56.497 0-102.298 45.8-102.298 102.298 0 3.988 0.228 7.923 0.672 11.791l-0.044-0.472q0 301.267 0 602.533c-0.724 4.493-1.138 9.672-1.138 14.949 0 54.52 44.197 98.717 98.717 98.717 5.276 0 10.456-0.414 15.508-1.211l-0.559 0.073zM748.308 128.32c-0.302 2.090-0.475 4.503-0.475 6.956 0 28.249 22.9 51.149 51.149 51.149 1.969 0 3.913-0.111 5.824-0.328l-0.234 0.022h92.068c57.287 0 74.677 15.856 74.677 71.097q0 291.037 0 582.585c0 51.149-18.414 70.074-71.608 70.585q-388.22 0-776.44 0c-51.149 0-71.608-17.902-71.608-70.074q0-291.037 0-582.585c0-55.752 17.391-71.608 74.677-71.608 127.872 0 255.744 0 383.105 0 2.881 0.298 6.224 0.469 9.608 0.469 33.671 0 63.406-16.858 81.222-42.594l0.215-0.328c38.561-56.202 88.037-102.083 145.675-135.423l2.145-1.145c0 44.5 0 81.838 0 119.177z" />
<glyph unicode="&#xe964;" glyph-name="logo_md" horiz-adv-x="6391" d="M3486.872 304.541c-6.445-0.037-12.68-0.884-18.62-2.442l0.517 0.117c-158.239-40.038-273.305-71.11-406.403-127.245 2.163 29.309 5.289 63.583 9.529 102.18l3.205 1.122c36.436 14.895 65.904 27.467 92.005 38.596l5.369 2.323c71.832 33.439 157.434 64.41 246.030 88.075l11.338 2.577c28.318 7.034 48.973 32.235 48.973 62.26 0 3.829-0.337 7.588-0.982 11.236l0.053-0.387c-4.085 30.271-27.707 60.944-64.778 60.944-6.875-0.021-13.518-0.982-19.815-2.767l0.517 0.124c-101.305-26.71-188.045-58.163-271.083-96.317l10.26 4.229-41.881-17.859c10.249 74.398 21.858 149.746 33.077 214.293 37.503 15.519 82.951 30.092 129.743 41.166l6.385 1.27c61.339 15.375 99.058 21.778 142.706 29.309 24.023 4.085 51.325 8.809 85.685 15.455 28.753 4.53 50.483 29.134 50.483 58.812 0 2.757-0.181 5.465-0.549 8.116l0.035-0.309c-3.045 32.032-28.669 66.704-69.829 66.704-5.113-0.017-10.089-0.54-14.899-1.526l0.485 0.084c-35.072-6.804-69.749-12.572-103.62-18.259-67.585-11.13-137.494-22.742-204.439-43.403-3.13 9.217-8.095 17.090-14.499 23.546l0.005-0.005c-13.096 12.921-31.088 20.898-50.954 20.898-0.245 0-0.485-0.001-0.735-0.005h0.037c-0.709 0.028-1.542 0.044-2.379 0.044-29.957 0-55.052-20.818-61.595-48.781l-0.085-0.427c-3.365-13.694-7.604-33.717-12.572-59.664-29.885-18.807-55.852-38.783-79.784-60.944l0.351 0.321c-13.224-11.122-21.57-27.678-21.57-46.182 0-8.179 1.63-15.975 4.581-23.084l-0.148 0.399c11.060-26.758 36.428-45.501 66.318-46.761l0.149-0.005c-29.791-190.666-57.577-417.93-48.045-495.446 4.645-38.836 32.596-65.904 67.825-65.904 12.296 0.092 23.881 3.041 34.158 8.211l-0.443-0.197c170.488 83.201 299.415 115.953 478.152 161.274 28.396 6.345 49.304 31.323 49.304 61.189 0 3.645-0.309 7.219-0.908 10.692l0.053-0.373c-4.485 31.152-28.428 62.699-66.704 62.699zM577.532 936.119c-12.012 14.705-30.144 24.017-50.45 24.023h-0.001c-0.292 0.005-0.629 0.005-0.98 0.005-21.119 0-39.543-11.529-49.329-28.64l-0.148-0.277c-24.023-41.641-45.726-85.124-66.784-127.325l-1.763-3.445c-13.372-26.666-27.226-54.293-41.481-80.959-27.867-52.29-51.405-93.851-74.318-130.607-7.124-11.451-14.014-22.098-20.978-32.032-13.052 35.796-39.398 112.751-55.415 169.368-11.13 39.398-24.023 78.232-36.116 115.873-5.849 17.859-11.531 35.796-16.898 52.13-0.48 4.725-1.202 9.449-2.403 15.135-2.334 6.964-4.661 12.664-7.3 18.179l0.413-0.964c-9.801 17.17-27.994 28.561-48.845 28.561-0.87 0-1.739-0.021-2.602-0.053l0.117 0.005c-0.145 0.001-0.316 0.003-0.485 0.003-10.812 0-21.010-2.634-29.984-7.3l0.357 0.165c-6.595-3.493-12.152-8.058-16.664-13.523l-0.069-0.091c-1.722-1.786-3.349-3.685-4.853-5.689l-0.112-0.155c-4.949-6.617-8.324-14.683-9.425-23.462l-0.021-0.245c-3.845-15.31-6.273-33.003-6.721-51.186l-0.005-0.303c-0.48-8.004-0.962-16.017-1.843-22.422-9.209-67.986-14.975-140.539-18.659-235.030-5.849-149.505-11.21-352.349-13.854-529.158-0.021-0.613-0.037-1.334-0.037-2.058 0-14.227 5.633-27.145 14.787-36.637l-0.015 0.016c11.146-10.708 26.319-17.308 43.028-17.308 0.412 0 0.822 0.005 1.238 0.011l-0.061-0.001c29.629 0 59.744 19.143 60.384 55.575 1.362 90.41 4.405 195.712 7.364 297.654l0.641 22.098c1.602 55.655 3.125 109.707 4.325 159.039 0 16.017 0.882 32.032 1.522 48.045 20.023-55.253 49.329-116.914 97.456-166.403 10.548-9.929 24.797-16.034 40.472-16.034 0.496 0 0.99 0.005 1.478 0.019l-0.069-0.001c0.451-0.012 0.982-0.021 1.51-0.021 11.396 0 21.97 3.509 30.704 9.513l-0.181-0.117c55.655 40.038 93.366 104.104 125.803 165.521q-2.483-25.384-4.885-50.77c-5.769-61.104-12.732-127.405-20.103-197.635l-0.641-5.849c-10.889-103.3-22.182-210.207-29.71-302.695-0.197-1.666-0.309-3.589-0.309-5.547 0-12.568 4.74-24.031 12.528-32.694l-0.037 0.044c10.32-10.402 24.619-16.84 40.422-16.84 0.565 0 1.136 0.005 1.706 0.021l-0.084-0.003c30.031 0 61.979 19.143 64.938 56.055 7.204 89.206 18.099 192.187 28.589 291.485v2.243c7.604 72.472 14.815 140.859 20.658 203.719 6.569 70.87 13.934 147.34 23.222 226.307l2.483 21.938c3.797 43.065 10.025 82.023 18.744 120.033l-1.126-5.841c1.248 4.261 1.966 9.169 1.966 14.236 0 12.232-4.177 23.478-11.181 32.404l0.085-0.115zM1244.587 10.731c29.469 0 59.664 19.063 60.304 55.575 1.362 88.091 4.325 191.547 7.204 291.646v12.091c1.763 61.259 3.525 120.997 4.805 175.046 0 16.017 0.802 32.032 1.442 48.045 20.103-55.253 49.329-116.914 97.456-166.403 10.56-9.93 24.817-16.040 40.504-16.040 0.512 0 1.023 0.005 1.531 0.020l-0.069-0.003c0.437-0.012 0.95-0.021 1.462-0.021 11.412 0 22.002 3.509 30.752 9.513l-0.181-0.117c55.575 40.038 93.286 104.104 125.723 165.521q-2.403-25.384-4.805-50.77c-6.009-64.063-13.454-134.771-20.738-203.479-10.889-103.3-22.182-210.207-29.71-302.695-0.207-1.686-0.325-3.643-0.325-5.625 0-12.536 4.709-23.96 12.456-32.618l-0.037 0.047c10.32-10.402 24.619-16.84 40.422-16.84 0.565 0 1.136 0.005 1.706 0.021l-0.084-0.003c30.031 0 61.979 19.143 64.938 56.055 7.124 88.486 18.099 191.707 28.589 291.485v2.243c8.004 72.472 14.815 140.859 20.738 203.719 6.569 70.79 13.934 147.26 23.142 226.307l2.483 21.938c4.101 43.228 10.606 82.135 19.596 120.090l-1.174-5.897c1.158 4.124 1.828 8.862 1.828 13.754 0 12.257-4.181 23.536-11.204 32.484l0.085-0.116c-12.032 14.707-30.181 24.023-50.508 24.023-0.005 0-0.016 0-0.021 0h0.001c-0.293 0.005-0.644 0.005-0.992 0.005-21.090 0-39.491-11.533-49.229-28.64l-0.147-0.277c-24.023-42.281-46.85-87.451-66.784-127.325l-1.202-2.003c-13.614-27.146-27.627-55.173-42.041-82.241-27.947-52.45-51.565-93.931-74.318-130.607-7.124-11.451-14.014-22.098-20.978-32.032-12.972 35.552-39.238 112.11-55.415 169.368-11.13 39.398-24.023 78.232-36.116 115.873-5.849 17.859-11.611 35.796-16.978 52.21-0.56 4.725-1.202 9.449-2.403 15.135-2.331 6.964-4.661 12.664-7.3 18.177l0.412-0.959c-9.801 17.17-27.994 28.561-48.845 28.561-0.87 0-1.739-0.021-2.602-0.053l0.117 0.005c-0.155 0.001-0.341 0.003-0.525 0.003-10.8 0-20.978-2.635-29.941-7.3l0.357 0.165c-6.601-3.489-12.16-8.052-16.664-13.522l-0.069-0.092c-1.754-1.787-3.403-3.694-4.933-5.699l-0.108-0.149c-4.962-6.521-8.383-14.466-9.579-23.126l-0.028-0.261c-3.813-15.267-6.237-32.933-6.72-51.080l-0.005-0.325c-0.48-8.004-0.882-16.017-1.843-22.582-9.209-67.986-14.975-140.459-18.659-235.030-5.849-150.466-11.13-353.229-13.854-529.158-0.021-0.629-0.037-1.366-0.037-2.106 0-14.191 5.636-27.063 14.787-36.507l-0.012 0.012c11.13-10.804 26.342-17.47 43.101-17.47 0.443 0 0.886 0.005 1.33 0.013l-0.067-0.001zM1836.050 10.731c29.549 0 59.744 19.063 60.304 55.575 1.362 89.206 4.405 194.19 7.284 295.575v2.083c1.843 63.343 3.605 125.323 4.885 181.138q0.56 24.023 1.522 48.045c20.023-55.335 49.329-116.914 97.456-166.483 10.548-9.929 24.797-16.034 40.472-16.034 0.496 0 0.99 0.005 1.478 0.019l-0.069-0.001c0.437-0.012 0.95-0.021 1.462-0.021 11.412 0 22.002 3.509 30.752 9.513l-0.181-0.117c55.655 40.038 93.366 104.104 125.723 165.521-1.602-16.898-3.205-33.797-4.805-50.77-5.689-59.984-12.492-124.922-19.703-193.709l-1.042-9.769c-10.889-103.3-22.182-210.207-29.71-302.695-0.203-1.682-0.321-3.621-0.321-5.601 0-12.537 4.709-23.977 12.456-32.644l-0.037 0.047c10.33-10.402 24.641-16.84 40.454-16.84 0.557 0 1.11 0.005 1.67 0.021l-0.081-0.003c30.031 0 61.979 19.143 64.938 56.055 7.204 88.486 18.099 191.707 28.669 291.485 7.284 69.187 14.895 140.779 20.978 205.961 6.649 71.19 14.014 147.9 23.142 226.307l2.483 22.342c3.957 43.061 10.292 81.89 19.095 119.773l-1.155-5.9c1.174 4.149 1.85 8.91 1.85 13.827 0 12.264-4.194 23.542-11.22 32.486l0.085-0.113c-12.024 14.691-30.149 24.001-50.45 24.023h-0.004c-0.305 0.005-0.661 0.005-1.026 0.005-21.106 0-39.518-11.532-49.277-28.64l-0.147-0.277c-24.023-41.641-45.726-85.124-66.784-127.325-13.854-27.707-28.187-56.055-43.083-84.404-27.867-52.21-51.485-93.771-74.318-130.607-7.044-11.451-14.014-22.098-20.978-32.032-12.972 35.716-39.318 112.671-55.415 169.368-11.37 40.038-24.503 80.077-36.116 115.873-5.769 17.859-11.531 35.796-16.898 52.21-0.48 4.725-1.202 9.449-2.323 14.895-2.282 7.010-4.613 12.785-7.28 18.371l0.389-0.915c-9.801 17.17-27.994 28.561-48.845 28.561-0.87 0-1.739-0.021-2.602-0.053l0.117 0.005c-0.155 0.001-0.341 0.003-0.525 0.003-10.8 0-20.978-2.635-29.941-7.3l0.357 0.165c-6.593-3.493-12.152-8.059-16.664-13.523l-0.069-0.091c-1.754-1.787-3.402-3.694-4.933-5.697l-0.109-0.149c-4.977-6.537-8.402-14.515-9.581-23.206l-0.028-0.257c-3.893-15.719-6.349-33.881-6.801-52.541l-0.005-0.309c-0.48-8.004-0.882-14.975-1.763-21.138-9.209-67.986-14.975-140.459-18.659-235.030-5.849-149.505-11.21-352.349-13.854-529.158-0.027-0.636-0.043-1.382-0.043-2.138 0-14.179 5.641-27.046 14.787-36.476l-0.011 0.012c11.108-10.708 26.251-17.306 42.931-17.306 0.389 0 0.78 0.005 1.171 0.005l-0.053-0.001zM806.477-15.693c114.273 0 258.974 82.481 322.396 314.069 41.24 150.706 32.032 370.202-129.567 492.806l-2.323 1.763c-5.947 22.826-26.376 39.403-50.678 39.403-3.23 0-6.393-0.293-9.465-0.854l0.32 0.049c-261.376-30.031-336.81-305.179-357.069-422.418-15.055-86.406-47.645-371.803 162.878-418.010 19.063-4.325 40.95-6.804 63.423-6.804 0.028 0 0.053 0 0.085 0h-0.005zM893.284 688.274c4.613 2.618 10.137 4.149 16.013 4.165h0.004c36.356 0 68.627-65.098 82.561-93.286 27.787-56.055 37.316-119.233 29.069-193.069-11.37-102.1-65.418-278.673-195.552-292.848-41.801-4.485-72.072 5.129-93.046 29.309-33.317 37.471-43.563 111.068-30.671 218.613 6.884 57.417 39.158 249.604 164.721 319.192 9.964 0.741 19.127 3.557 27.249 8.020l-0.341-0.175zM2507.43 146.225c-34.111 0-65.578-0.641-96.094-1.923-46.53-2.003-70.069-40.038-69.268-76.313 0.721-32.516 21.778-67.425 66.224-67.425h3.685c30.191 1.282 61.339 1.923 95.213 1.923 75.993 0 153.271-3.285 227.987-6.409 32.032-1.362 64.063-2.723 95.693-3.845h3.045c45.166 0 66.384 35.312 66.945 68.227 0.641 36.276-22.982 73.917-69.428 75.512-32.032 1.042-64.063 2.483-95.693 3.845l-57.096 2.403 29.549 599.868 165.441 6.964c46.53 2.003 70.069 40.038 69.268 76.233-0.721 32.516-21.698 67.505-66.304 67.505l-412.083-17.378c-46.45-2.003-69.989-40.038-69.268-76.233 0.641-32.436 21.698-67.425 66.304-67.425l102.66 4.325-29.149-589.941c-9.289-0.080-18.659 0.080-27.627 0.080zM3757.541 439.070c-49.81 95.373-75.032 168.726-75.032 218.133v11.931c0 32.032-0.802 67.825 22.098 88.091 8.969 8.004 22.422 10.489 36.676 13.212 26.426 5.045 59.34 11.37 64.063 58.94 1.282 12.892-4.565 31.472-40.439 47.090-6.723 2.586-14.499 4.085-22.625 4.085-0.069 0-0.133 0-0.209 0h0.005c-49.65 0-116.753-16.017-154.632-90.17l-1.202-2.243c-20.364-37.048-32.436-81.151-32.676-128.053v-0.069c0-53.572 19.303-119.313 57.337-195.472 56.055-112.11 86.165-173.453 89.046-181.538 6.397-17.619 10.1-37.967 10.1-59.17 0-0.595-0.004-1.187-0.005-1.78l0.001 0.085c0.021-1.11 0.035-2.431 0.035-3.749 0-57.126-23.421-108.782-61.184-145.889l-0.028-0.028c-1.923-2.287-4.485-3.973-7.423-4.78l-0.101-0.021c-1.522 0-7.044 1.763-16.017 4.325-3.313 1.206-7.138 1.908-11.124 1.908-5.497 0-10.676-1.326-15.25-3.675l0.187 0.085c-25.544-13.212-38.436-29.469-38.436-48.045 0.549-12.288 5.747-23.265 13.85-31.308l0.004-0.004c18.019-19.703 44.926-29.71 80.077-29.71 20.498 0.373 39.731 5.42 56.795 14.115l-0.74-0.341c41.694 20.791 74.464 54.284 93.811 95.341l0.517 1.234c18.364 37.129 29.109 80.844 29.109 127.064 0 1.696-0.013 3.389-0.037 5.077l0.004-0.253c0.24 58.538-25.624 137.975-76.557 235.59zM5400.354 153.673h-4.885c-52.21 0-80.077-41.801-81.359-83.201-0.882-40.038 23.382-83.762 78.792-86.165h4.325c52.53 0 80.959 41.881 81.839 83.201 0.882 39.798-23.382 83.762-78.712 86.165zM4757.641 625.335c-17.619 126.124-94.973 234.228-201.793 282.202-33.958 15.745-73.677 25.040-115.543 25.303h-0.093c-1.446 0.033-3.162 0.053-4.869 0.053-72.409 0-136.877-34.006-178.294-86.923l-0.373-0.496c-11.796-14.819-22.456-31.52-31.296-49.293l-0.737-1.638c-4.588-8.77-7.282-19.159-7.282-30.169 0-13.272 3.909-25.638 10.641-35.992l-0.155 0.256c9.417-14.986 23.687-26.186 40.558-31.488l0.517-0.141c-3.125-95.453-3.845-194.030-2.083-293.088 1.282-69.509 3.845-151.748 13.694-234.71l1.602-14.254c-10.569-1.202-20.978-1.923-30.831-2.163-43.163-1.042-65.338-35.552-64.858-69.107 0-31.312 20.578-64.938 64.063-64.938h1.682c22.326 0.587 43.667 2.634 64.543 6.057l-2.721-0.368c3.493-6.784 7.136-12.577 11.204-18.031l-0.236 0.331c12.912-18.587 33.861-30.816 57.697-31.628l0.117-0.004c12.111 0.068 23.414 3.482 33.033 9.369l-0.277-0.16c16.344 10.43 28.033 26.918 31.952 46.226l0.077 0.459c0.859 3.82 1.35 8.207 1.35 12.712 0 7.364-1.318 14.419-3.731 20.942l0.133-0.419c73.204 34.632 134.899 82.337 184.502 140.647l0.64 0.772c101.625 119.233 147.9 272.267 127.165 419.696zM4406.978 795.263c7.924 3.13 17.105 4.941 26.71 4.941 1.030 0 2.051-0.021 3.067-0.061l-0.147 0.005h7.524c16.376-0.593 31.776-4.005 45.987-9.774l-0.902 0.325c66.464-22.422 120.113-94.011 136.132-182.34 18.419-99.779-17.859-222.698-92.325-313.188-33.397-40.421-73.683-73.789-119.278-98.639l-2.122-1.060c-8.004 74.798-10.089 151.668-11.21 223.579-1.843 127.807 0.32 254.334 6.649 376.209zM5228.024 361.801c-9.929 89.766-20.183 182.5-37.396 272.828-11.931 62.459-25.544 128.612-49.085 191.467-10.649 28.428-21.938 55.495-43.403 75.032-14.947 13.891-35.008 22.457-57.072 22.582h-0.021c-0.068 0-0.148 0-0.228 0-23.114 0-43.883-10.057-58.165-26.031l-0.067-0.069c-11.057-11.644-17.857-27.425-17.857-44.79 0-8.068 1.467-15.799 4.149-22.925l-0.149 0.449c0.163-0.485 0.325-0.884 0.508-1.27l-0.028 0.068c-0.87-1.606-1.764-3.563-2.527-5.577l-0.116-0.341c-24.023-64.063-45.806-130.207-66.784-193.87v-0.48c-23.302-70.79-44.604-134.531-68.387-197.715-22.924-7.139-39.278-28.161-39.278-53.012 0-3.053 0.245-6.049 0.723-8.969l-0.037 0.319c0.975-7.651 3.090-14.595 6.185-20.978l-0.175 0.401c-11.049-26.906-23.542-58.058-33.237-88.886-13.212-41.721-28.428-103.38-8.004-156.474 9.218-27.329 34.255-46.818 63.967-47.645l0.096-0.003c6.275 0.005 12.344 0.886 18.083 2.522l-0.469-0.115c18.887 5.881 34.063 18.849 42.739 35.716l0.181 0.401c4.394 8.031 6.98 17.593 6.98 27.761 0 7.284-1.326 14.256-3.749 20.69l0.133-0.405c-10.329 27.146 2.563 64.063 14.014 97.055l2.723 8.004c8.969 26.104 19.783 51.89 30.111 76.957l2.803 6.804c45.806 9.609 93.771 18.579 160.154 29.71l3.285-29.951c12.492-114.113 25.384-232.227 52.93-345.938 5.787-28.017 30.261-48.788 59.584-48.788 0.561 0 1.12 0.005 1.676 0.021l-0.083-0.003c22.87 0.065 43.283 10.541 56.752 26.938l0.101 0.128c8.537 10.706 13.683 24.429 13.683 39.358 0 5.945-0.818 11.691-2.346 17.138l0.101-0.445c-27.387 112.030-40.439 229.021-53.012 342.335zM5080.521 480.391c-36.756-6.169-67.185-11.451-95.373-16.657 14.254 41.16 28.428 83.682 41.721 123.8l1.442 4.405c6.329 19.143 13.694 41.481 21.378 64.063 6.089-27.547 11.931-58.138 18.099-93.286 1.522-8.569 2.883-17.218 4.245-25.864 0.56-3.445 1.042-6.964 1.602-10.489l1.682-11.451c0-2.803 0.721-5.045 0.882-5.929q2.243-14.014 4.325-28.589zM5463.779 541.092c0.721 11.531 1.522 23.542 2.243 36.596v1.282c1.602 26.266 2.803 41.801 3.605 53.092v2.643c1.602 20.498 2.563 32.837 4.005 80.077 0 4.565 0 9.129 0.56 13.774v7.204c1.923 46.61 3.845 94.731-8.004 139.497-7.236 28.648-32.788 49.512-63.21 49.512-0.611 0-1.219-0.005-1.824-0.021l0.085 0.003c-0.245 0.004-0.533 0.005-0.822 0.005-22.23 0-42.073-10.185-55.129-26.15l-0.101-0.127c-7.636-9.972-12.248-22.62-12.248-36.343 0-6.473 1.022-12.696 2.915-18.531l-0.117 0.421c1.558-5.779 2.858-12.744 3.627-19.87l0.053-0.629v-4.245c0.48-7.044 0.641-13.934 0.802-19.783 0.882-32.032 0-64.063-1.282-96.094-1.682-46.61-2.883-62.699-4.725-85.204v-0.882c-1.122-14.414-2.563-32.436-4.485-64.778l-1.602-25.784c-3.365-55.575-5.769-95.693-5.129-158.559 0-3.285 0-6.804 0-10.569v-1.282c0-50.53 0-134.931 64.063-144.945 4.797-0.79 10.34-1.254 15.991-1.282h0.021c1.446-0.128 3.133-0.197 4.837-0.197 18.876 0 35.657 8.971 46.311 22.886l0.101 0.139c18.019 24.983 13.052 61.419 7.204 79.032-1.11 3.631-1.984 7.924-2.458 12.344l-0.021 0.309c0 0.48 0 2.083 0 4.405v1.202c0 2.083 0 4.325-0.48 5.289 0 6.089-0.56 12.252-0.721 18.259v1.362c0 14.254 0 29.149 0 41.801 0.48 57.497 2.723 93.851 5.929 144.141zM6335.195 889.598c-0.305 0.005-0.661 0.005-1.028 0.005-18.801 0-35.392-9.449-45.294-23.841l-0.117-0.181-2.163 0.56-4.805-14.655c-25.224-73.033-55.173-146.065-86.891-223.579v-0.802c-13.372-32.756-24.583-60.064-35.392-87.211-28.508 41-58.058 84.724-90.006 133.567-11.13 16.978-16.978 24.823-21.698 31.152-7.764 10.244-15.421 21.858-22.31 33.973l-0.831 1.587c-9.689 16.017-18.179 32.032-26.104 46.85-2.965 5.609-5.929 11.691-9.049 18.419l-1.282 3.045c-0.882 2.163-1.602 4.485-2.243 6.729-6.537 22.694-27.11 39.007-51.494 39.007-0.364 0-0.725-0.005-1.092-0.005l0.053 0.001c-0.128 0.001-0.277 0.003-0.432 0.003-18.935 0-35.789-8.877-46.642-22.694l-0.097-0.128c-6.121-8.34-9.801-18.808-9.801-30.137 0-6.433 1.186-12.588 3.354-18.259l-0.117 0.352v-0.56c22.3-52.929 47.725-98.409 77.476-140.632l-1.558 2.337c4.565-6.884 9.289-14.094 14.414-22.018v-0.4c49.489-76.073 96.094-143.661 141.42-206.441-50.85-141.42-77.677-256.252-84.242-360.353-0.144-1.43-0.227-3.089-0.227-4.766 0-13.119 5.013-25.065 13.234-34.030l-0.035 0.037c9.865-9.906 23.51-16.040 38.591-16.040 0.508 0 1.014 0.005 1.524 0.021l-0.069-0.003c0.597-0.021 1.299-0.037 2.003-0.037 29.901 0 54.337 23.414 55.964 52.902l0.005 0.145c11.37 179.937 88.091 364.201 161.758 542.292l0.56 1.442c24.663 59.5 48.045 115.713 69.107 172.092 3.322 4.596 6.041 9.907 7.892 15.609l0.115 0.405c1.923 6.009 3.685 12.091 5.449 18.659 1.522 5.369 3.045 10.969 4.885 16.497 2.010 5.194 3.178 11.204 3.178 17.49 0 10.9-3.499 20.978-9.438 29.181l0.101-0.145c-10.796 13.795-27.45 22.582-46.157 22.582-0.157 0-0.315-0.001-0.469-0.003h0.021zM5906.453 211.007c-0.037 0-0.095 0-0.147 0-11.513 0-22.337-2.97-31.742-8.18l0.336 0.165c-36.372-21.114-78.469-39.635-122.679-53.361l-4.405-1.174c-17.538-5.244-37.775-8.538-58.689-9.123l-0.325-0.005c-0.037 1.567-0.064 3.413-0.064 5.261 0 16.525 1.866 32.615 5.385 48.073l-0.277-1.446v1.682c5.929 32.756 12.492 69.909 17.939 107.059 26.367 166.003 46.058 365.792 54.636 568.457l0.373 11.074c0.085 1.2 0.133 2.602 0.133 4.013 0 15.886-6.143 30.341-16.184 41.102l0.033-0.037c-11.78 11.732-28.038 18.988-45.986 18.988-0.387 0-0.774-0.004-1.158-0.005l0.053 0.001c-0.838 0.037-1.824 0.061-2.814 0.061-34.952 0-63.367-27.99-64.049-62.779l-0.001-0.064c-6.804-182.98-27.066-385.818-61.979-619.889-1.282-8.809-2.965-18.099-4.965-29.389-12.332-68.947-27.707-154.872 42.361-201.633 20.594-13.272 45.754-21.154 72.751-21.154 1.818 0 3.621 0.037 5.423 0.101l-0.26-0.005c29.374 0.806 57.409 4.933 84.241 12.025l-2.562-0.575c59.984 13.854 116.113 41.801 168.165 69.909 19.674 9.737 32.965 29.669 32.965 52.701 0 5.785-0.838 11.377-2.401 16.657l0.101-0.415c-6.884 25.784-30.992 51.89-64.223 51.89z" />
<glyph unicode="&#xe965;" glyph-name="ic_unchecked" d="M512-64c-280.487 0-512 231.513-512 512s231.513 512 512 512c280.487 0 512-231.513 512-512s-231.513-512-512-512zM512 915.478c-258.226 0-467.478-209.252-467.478-467.478s209.252-467.478 467.478-467.478c258.226 0 467.478 209.252 467.478 467.478s-209.252 467.478-467.478 467.478z" />
</font>
</defs>
</svg>
